<svg xmlns="http://www.w3.org/2000/svg" xmlns:xlink="http://www.w3.org/1999/xlink" version="1.1" x="0px" y="0px" width="100px" height="100px" viewBox="0 0 100 100" enable-background="new 0 0 100 100" xml:space="preserve">
<g id="Layer_1" display="none">
	<g id="t5aJkj_1_" display="inline" opacity="0.61">
		
			</g>
</g>
<g id="Layer_2">
	<rect x="-749" y="55" width="1" height="12"/>
	<rect x="-747.5" y="56" width="1" height="10"/>
	<rect x="-746" y="55" width="35.5" height="12"/>
	<polygon points="-710,67 -710,55 -706.5,56.5 -706.5,65.5  "/>
	<rect x="-706" y="57" width="0.5" height="8"/>
	<rect x="-705" y="56.5" width="4" height="9"/>
	<rect x="-700.5" y="56.5" width="14" height="9"/>
	<path d="M-686,65.5c0,0,13-2,13-4.5s-13-4.5-13-4.5V65.5z"/>
	<g>
		<path d="M-750,20.5v12h-1v-12H-750 M-750,19.5h-1c-0.552,0-1,0.448-1,1v12c0,0.552,0.448,1,1,1h1c0.552,0,1-0.448,1-1v-12    C-749,19.948-749.448,19.5-750,19.5L-750,19.5z"/>
	</g>
	<g>
		<path d="M-746.5,21.5v10h-1v-10H-746.5 M-746.5,20.5h-1c-0.552,0-1,0.448-1,1v10c0,0.552,0.448,1,1,1h1c0.552,0,1-0.448,1-1v-10    C-745.5,20.948-745.948,20.5-746.5,20.5L-746.5,20.5z"/>
	</g>
	
		<rect x="-744.5" y="20.5" fill="none" stroke="#000000" stroke-linecap="round" stroke-linejoin="round" stroke-miterlimit="10" width="35.5" height="12"/>
	<polygon fill="none" stroke="#000000" stroke-linecap="round" stroke-linejoin="round" stroke-miterlimit="10" points="   -707.5,32.5 -707.5,20.5 -704,22 -704,31  "/>
	<path fill="none" stroke="#000000" stroke-miterlimit="10" d="M-701.5,31h-0.5c-0.276,0-0.5-0.224-0.5-0.5v-8   c0-0.276,0.224-0.5,0.5-0.5h0.5c0.276,0,0.5,0.224,0.5,0.5v8C-701,30.776-701.224,31-701.5,31z"/>
	
		<rect x="-699.5" y="22" fill="none" stroke="#000000" stroke-linecap="round" stroke-linejoin="round" stroke-miterlimit="10" width="4" height="9"/>
	
		<rect x="-694" y="22" fill="none" stroke="#000000" stroke-linecap="round" stroke-linejoin="round" stroke-miterlimit="10" width="14" height="9"/>
	<path fill="none" stroke="#000000" stroke-linejoin="round" stroke-miterlimit="10" d="M-678.5,31c0,0,13-2,13-4.5s-13-4.5-13-4.5   V31z"/>
	
		<line fill="none" stroke="#000000" stroke-linecap="round" stroke-linejoin="round" stroke-miterlimit="10" x1="-743" y1="23" x2="-723.5" y2="23"/>
	
		<line fill="none" stroke="#000000" stroke-linecap="round" stroke-linejoin="round" stroke-miterlimit="10" x1="-720.5" y1="23" x2="-714" y2="23"/>
	
		<line fill="none" stroke="#000000" stroke-linecap="round" stroke-linejoin="round" stroke-miterlimit="10" x1="-692.5" y1="23.5" x2="-688" y2="23.5"/>
	
		<line fill="none" stroke="#000000" stroke-linecap="round" stroke-linejoin="round" stroke-miterlimit="10" x1="-685.5" y1="23.5" x2="-683.5" y2="23.5"/>
	<g>
		<path d="M-629,96.5v1h-12v-1H-629 M-629,95.5h-12c-0.552,0-1,0.447-1,1v1c0,0.553,0.448,1,1,1h12c0.552,0,1-0.447,1-1v-1    C-628,95.947-628.448,95.5-629,95.5L-629,95.5z"/>
		<path d="M-630,93v1h-10v-1H-630 M-630,92h-10c-0.552,0-1,0.447-1,1v1c0,0.553,0.448,1,1,1h10c0.552,0,1-0.447,1-1v-1    C-629,92.447-629.448,92-630,92L-630,92z"/>
		<path d="M-629,91.5h-12c-0.276,0-0.5-0.224-0.5-0.5V55.5c0-0.276,0.224-0.5,0.5-0.5h12c0.276,0,0.5,0.224,0.5,0.5V91    C-628.5,91.276-628.724,91.5-629,91.5z M-640.5,90.5h11V56h-11V90.5z"/>
		<path d="M-628.98,54.5c-0.007-0.001-0.013,0-0.02,0h-12c-0.168,0-0.325-0.084-0.417-0.225c-0.092-0.141-0.108-0.317-0.042-0.473    l1.5-3.5C-639.881,50.119-639.7,50-639.5,50h9c0.2,0,0.381,0.119,0.459,0.303l1.45,3.383c0.069,0.086,0.11,0.195,0.11,0.313    C-628.48,54.276-628.704,54.5-628.98,54.5z M-640.242,53.5h10.483l-1.071-2.5h-8.341L-640.242,53.5z"/>
		<path d="M-631,49.5h-8c-0.551,0-1-0.449-1-1V48c0-0.551,0.449-1,1-1h8c0.551,0,1,0.449,1,1v0.5C-630,49.051-630.449,49.5-631,49.5    z M-631,48.5V49V48.5L-631,48.5z M-639,48v0.5h8V48H-639z"/>
		<path d="M-630.5,46.5h-9c-0.276,0-0.5-0.224-0.5-0.5v-4c0-0.276,0.224-0.5,0.5-0.5h9c0.276,0,0.5,0.224,0.5,0.5v4    C-630,46.276-630.224,46.5-630.5,46.5z M-639,45.5h8v-3h-8V45.5z"/>
		<path d="M-630.5,41h-9c-0.276,0-0.5-0.224-0.5-0.5v-14c0-0.276,0.224-0.5,0.5-0.5h9c0.276,0,0.5,0.224,0.5,0.5v14    C-630,40.776-630.224,41-630.5,41z M-639,40h8V27h-8V40z"/>
		<path d="M-630.5,25.5h-9c-0.146,0-0.285-0.063-0.379-0.174c-0.095-0.111-0.137-0.257-0.115-0.402    C-639.51,21.775-637.718,11.5-635,11.5s4.51,10.275,4.994,13.424c0.022,0.145-0.02,0.291-0.115,0.402    C-630.215,25.437-630.354,25.5-630.5,25.5z M-638.915,24.5h7.829c-0.958-5.901-2.715-12-3.915-12    C-636.2,12.5-637.957,18.599-638.915,24.5z"/>
		<path d="M-638.5,90c-0.276,0-0.5-0.224-0.5-0.5V70c0-0.276,0.224-0.5,0.5-0.5s0.5,0.224,0.5,0.5v19.5    C-638,89.776-638.224,90-638.5,90z"/>
		<path d="M-638.5,67.5c-0.276,0-0.5-0.224-0.5-0.5v-6.5c0-0.276,0.224-0.5,0.5-0.5s0.5,0.224,0.5,0.5V67    C-638,67.276-638.224,67.5-638.5,67.5z"/>
		<path d="M-638,39.5c-0.276,0-0.5-0.224-0.5-0.5v-4.5c0-0.276,0.224-0.5,0.5-0.5s0.5,0.224,0.5,0.5V39    C-637.5,39.276-637.724,39.5-638,39.5z"/>
		<path d="M-638,32.5c-0.276,0-0.5-0.224-0.5-0.5v-2c0-0.276,0.224-0.5,0.5-0.5s0.5,0.224,0.5,0.5v2    C-637.5,32.276-637.724,32.5-638,32.5z"/>
	</g>
	<g>
		<path d="M-611.111,96.5v1h-12v-1H-611.111 M-611.111,95.5h-12c-0.552,0-1,0.447-1,1v1c0,0.553,0.448,1,1,1h12c0.552,0,1-0.447,1-1    v-1C-610.111,95.947-610.559,95.5-611.111,95.5L-611.111,95.5z"/>
		<path d="M-612.111,93v1h-10v-1H-612.111 M-612.111,92h-10c-0.552,0-1,0.447-1,1v1c0,0.553,0.448,1,1,1h10c0.552,0,1-0.447,1-1v-1    C-611.111,92.447-611.559,92-612.111,92L-612.111,92z"/>
		<path d="M-611.111,91.5h-12c-0.276,0-0.5-0.224-0.5-0.5V55.5c0-0.276,0.224-0.5,0.5-0.5h12c0.276,0,0.5,0.224,0.5,0.5V91    C-610.611,91.276-610.835,91.5-611.111,91.5z M-622.611,90.5h11V56h-11V90.5z"/>
		<path d="M-611.091,54.5c-0.007-0.001-0.013,0-0.02,0h-12c-0.168,0-0.325-0.084-0.417-0.225c-0.092-0.141-0.108-0.317-0.042-0.473    l1.5-3.5c0.079-0.184,0.259-0.303,0.459-0.303h9c0.2,0,0.381,0.119,0.459,0.303l1.45,3.384c0.069,0.086,0.11,0.195,0.11,0.313    C-610.591,54.276-610.815,54.5-611.091,54.5z M-622.353,53.5h10.483l-1.071-2.5h-8.341L-622.353,53.5z"/>
		<path d="M-613.111,49.5h-8c-0.551,0-1-0.449-1-1V48c0-0.551,0.449-1,1-1h8c0.551,0,1,0.449,1,1v0.5    C-612.111,49.051-612.56,49.5-613.111,49.5z M-613.111,48.5V49V48.5C-613.111,48.5-613.111,48.5-613.111,48.5z M-621.111,48v0.5h8    V48H-621.111z"/>
		<path d="M-612.611,46.5h-9c-0.276,0-0.5-0.224-0.5-0.5v-4c0-0.276,0.224-0.5,0.5-0.5h9c0.276,0,0.5,0.224,0.5,0.5v4    C-612.111,46.276-612.335,46.5-612.611,46.5z M-621.111,45.5h8v-3h-8V45.5z"/>
		<path d="M-612.611,41h-9c-0.276,0-0.5-0.224-0.5-0.5v-14c0-0.276,0.224-0.5,0.5-0.5h9c0.276,0,0.5,0.224,0.5,0.5v14    C-612.111,40.776-612.335,41-612.611,41z M-621.111,40h8V27h-8V40z"/>
		<path d="M-612.611,25.5h-9c-0.146,0-0.285-0.063-0.379-0.174c-0.095-0.111-0.137-0.257-0.115-0.402    c0.484-3.149,2.276-13.424,4.994-13.424s4.51,10.275,4.994,13.424c0.022,0.145-0.02,0.291-0.115,0.402    C-612.327,25.437-612.465,25.5-612.611,25.5z M-621.026,24.5h7.829c-0.958-5.901-2.715-12-3.915-12    C-618.311,12.5-620.068,18.599-621.026,24.5z"/>
		<path d="M-620.611,90c-0.276,0-0.5-0.224-0.5-0.5V70c0-0.276,0.224-0.5,0.5-0.5s0.5,0.224,0.5,0.5v19.5    C-620.111,89.776-620.335,90-620.611,90z"/>
		<path d="M-620.611,67.5c-0.276,0-0.5-0.224-0.5-0.5v-6.5c0-0.276,0.224-0.5,0.5-0.5s0.5,0.224,0.5,0.5V67    C-620.111,67.276-620.335,67.5-620.611,67.5z"/>
		<path d="M-620.111,39.5c-0.276,0-0.5-0.224-0.5-0.5v-4.5c0-0.276,0.224-0.5,0.5-0.5s0.5,0.224,0.5,0.5V39    C-619.611,39.276-619.835,39.5-620.111,39.5z"/>
		<path d="M-620.111,32.5c-0.276,0-0.5-0.224-0.5-0.5v-2c0-0.276,0.224-0.5,0.5-0.5s0.5,0.224,0.5,0.5v2    C-619.611,32.276-619.835,32.5-620.111,32.5z"/>
	</g>
	<g>
		<path d="M-593.222,96.5v1h-12v-1H-593.222 M-593.222,95.5h-12c-0.552,0-1,0.447-1,1v1c0,0.553,0.448,1,1,1h12c0.552,0,1-0.447,1-1    v-1C-592.222,95.947-592.67,95.5-593.222,95.5L-593.222,95.5z"/>
		<path d="M-594.222,93v1h-10v-1H-594.222 M-594.222,92h-10c-0.552,0-1,0.447-1,1v1c0,0.553,0.448,1,1,1h10c0.552,0,1-0.447,1-1v-1    C-593.222,92.447-593.67,92-594.222,92L-594.222,92z"/>
		<path d="M-593.222,91.5h-12c-0.276,0-0.5-0.224-0.5-0.5V55.5c0-0.276,0.224-0.5,0.5-0.5h12c0.276,0,0.5,0.224,0.5,0.5V91    C-592.722,91.276-592.946,91.5-593.222,91.5z M-604.722,90.5h11V56h-11V90.5z"/>
		<path d="M-593.202,54.5c-0.007-0.001-0.013,0-0.02,0h-12c-0.168,0-0.325-0.084-0.417-0.225c-0.092-0.141-0.108-0.317-0.042-0.473    l1.5-3.5c0.079-0.184,0.259-0.303,0.459-0.303h9c0.2,0,0.381,0.119,0.459,0.303l1.45,3.384c0.069,0.086,0.11,0.195,0.11,0.313    C-592.702,54.276-592.926,54.5-593.202,54.5z M-604.464,53.5h10.483l-1.071-2.5h-8.341L-604.464,53.5z"/>
		<path d="M-595.222,49.5h-8c-0.551,0-1-0.449-1-1V48c0-0.551,0.449-1,1-1h8c0.551,0,1,0.449,1,1v0.5    C-594.222,49.051-594.671,49.5-595.222,49.5z M-595.222,48.5V49V48.5L-595.222,48.5z M-603.222,48v0.5h8V48H-603.222z"/>
		<path d="M-594.722,46.5h-9c-0.276,0-0.5-0.224-0.5-0.5v-4c0-0.276,0.224-0.5,0.5-0.5h9c0.276,0,0.5,0.224,0.5,0.5v4    C-594.222,46.276-594.446,46.5-594.722,46.5z M-603.222,45.5h8v-3h-8V45.5z"/>
		<path d="M-594.722,41h-9c-0.276,0-0.5-0.224-0.5-0.5v-14c0-0.276,0.224-0.5,0.5-0.5h9c0.276,0,0.5,0.224,0.5,0.5v14    C-594.222,40.776-594.446,41-594.722,41z M-603.222,40h8V27h-8V40z"/>
		<path d="M-594.722,25.5h-9c-0.146,0-0.285-0.063-0.379-0.174c-0.095-0.111-0.137-0.257-0.115-0.402    c0.484-3.149,2.276-13.424,4.994-13.424s4.51,10.275,4.994,13.424c0.022,0.145-0.02,0.291-0.115,0.402    C-594.438,25.437-594.576,25.5-594.722,25.5z M-603.137,24.5h7.829c-0.958-5.901-2.715-12-3.915-12    C-600.422,12.5-602.179,18.599-603.137,24.5z"/>
		<path d="M-602.722,90c-0.276,0-0.5-0.224-0.5-0.5V70c0-0.276,0.224-0.5,0.5-0.5s0.5,0.224,0.5,0.5v19.5    C-602.222,89.776-602.446,90-602.722,90z"/>
		<path d="M-602.722,67.5c-0.276,0-0.5-0.224-0.5-0.5v-6.5c0-0.276,0.224-0.5,0.5-0.5s0.5,0.224,0.5,0.5V67    C-602.222,67.276-602.446,67.5-602.722,67.5z"/>
		<path d="M-602.222,39.5c-0.276,0-0.5-0.224-0.5-0.5v-4.5c0-0.276,0.224-0.5,0.5-0.5s0.5,0.224,0.5,0.5V39    C-601.722,39.276-601.946,39.5-602.222,39.5z"/>
		<path d="M-602.222,32.5c-0.276,0-0.5-0.224-0.5-0.5v-2c0-0.276,0.224-0.5,0.5-0.5s0.5,0.224,0.5,0.5v2    C-601.722,32.276-601.946,32.5-602.222,32.5z"/>
	</g>
	<g>
		<path d="M-575.361,96.5v1h-12v-1H-575.361 M-575.361,95.5h-12c-0.552,0-1,0.447-1,1v1c0,0.553,0.448,1,1,1h12c0.553,0,1-0.447,1-1    v-1C-574.361,95.947-574.808,95.5-575.361,95.5L-575.361,95.5z"/>
		<path d="M-576.361,93v1h-10v-1H-576.361 M-576.361,92h-10c-0.552,0-1,0.447-1,1v1c0,0.553,0.448,1,1,1h10c0.553,0,1-0.447,1-1v-1    C-575.361,92.447-575.808,92-576.361,92L-576.361,92z"/>
		<path d="M-575.361,91.5h-12c-0.276,0-0.5-0.224-0.5-0.5V55.5c0-0.276,0.224-0.5,0.5-0.5h12c0.276,0,0.5,0.224,0.5,0.5V91    C-574.861,91.276-575.084,91.5-575.361,91.5z M-586.861,90.5h11V56h-11V90.5z"/>
		<path d="M-575.34,54.5c-0.008-0.001-0.014,0-0.021,0h-12c-0.168,0-0.324-0.084-0.417-0.225s-0.108-0.317-0.042-0.473l1.5-3.5    c0.078-0.184,0.259-0.303,0.459-0.303h9c0.2,0,0.381,0.119,0.46,0.303l1.45,3.384c0.068,0.086,0.11,0.195,0.11,0.313    C-574.84,54.276-575.065,54.5-575.34,54.5z M-586.602,53.5h10.483l-1.071-2.5h-8.341L-586.602,53.5z"/>
		<path d="M-577.361,49.5h-8c-0.551,0-1-0.449-1-1V48c0-0.551,0.449-1,1-1h8c0.552,0,1,0.449,1,1v0.5    C-576.361,49.051-576.809,49.5-577.361,49.5z M-577.361,48.5V49V48.5L-577.361,48.5z M-585.361,48v0.5h8V48H-585.361z"/>
		<path d="M-576.861,46.5h-9c-0.276,0-0.5-0.224-0.5-0.5v-4c0-0.276,0.224-0.5,0.5-0.5h9c0.276,0,0.5,0.224,0.5,0.5v4    C-576.361,46.276-576.584,46.5-576.861,46.5z M-585.361,45.5h8v-3h-8V45.5z"/>
		<path d="M-576.861,41h-9c-0.276,0-0.5-0.224-0.5-0.5v-14c0-0.276,0.224-0.5,0.5-0.5h9c0.276,0,0.5,0.224,0.5,0.5v14    C-576.361,40.776-576.584,41-576.861,41z M-585.361,40h8V27h-8V40z"/>
		<path d="M-584.861,90c-0.276,0-0.5-0.224-0.5-0.5V70c0-0.276,0.224-0.5,0.5-0.5s0.5,0.224,0.5,0.5v19.5    C-584.361,89.776-584.584,90-584.861,90z"/>
		<path d="M-584.861,67.5c-0.276,0-0.5-0.224-0.5-0.5v-6.5c0-0.276,0.224-0.5,0.5-0.5s0.5,0.224,0.5,0.5V67    C-584.361,67.276-584.584,67.5-584.861,67.5z"/>
	</g>
	
		<rect x="-585.361" y="17.5" fill="none" stroke="#000000" stroke-linecap="round" stroke-linejoin="round" stroke-miterlimit="10" width="8" height="7.5"/>
	<g>
		<path d="M-582.631,21.375h-1.5c-0.069,0-0.125,0.056-0.125,0.125V23c0,0.069,0.056,0.125,0.125,0.125h1.5    c0.069,0,0.125-0.056,0.125-0.125v-1.5C-582.506,21.431-582.562,21.375-582.631,21.375z"/>
		<path d="M-578.631,21.375h-1.5c-0.069,0-0.125,0.056-0.125,0.125V23c0,0.069,0.056,0.125,0.125,0.125h1.5    c0.069,0,0.125-0.056,0.125-0.125v-1.5C-578.506,21.431-578.562,21.375-578.631,21.375z"/>
	</g>
	<path d="M-579.238,30.127h-1.062c-0.138,0-0.25,0.112-0.25,0.25v1.073c0,0.138,0.112,0.25,0.25,0.25h0.105l0,0.61   c-0.001,0.059-0.027,0.126-0.048,0.156l-0.693,0.664v-3.307h0.188c0.089,0,0.171-0.047,0.216-0.125   c0.044-0.077,0.045-0.172,0.001-0.25l-0.613-1.073c-0.09-0.156-0.346-0.155-0.435,0l-0.612,1.073   c-0.044,0.078-0.043,0.172,0.001,0.25c0.045,0.077,0.127,0.125,0.216,0.125h0.187v4.649l-0.67-0.64   c-0.043-0.054-0.07-0.122-0.071-0.176l0-0.744c0.218-0.143,0.356-0.388,0.356-0.657c0-0.434-0.351-0.787-0.781-0.787   s-0.781,0.353-0.781,0.787c0,0.269,0.138,0.515,0.355,0.657v0.733c0,0.337,0.182,0.646,0.352,0.824   c0.001,0.001,0.003,0.003,0.004,0.005h0c0.002,0.002,0.005,0.005,0.008,0.007c0.103,0.099,1.155,1.106,1.158,1.106   c0.042,0.053,0.068,0.12,0.069,0.174v0.436c-0.422,0.173-0.711,0.592-0.711,1.063c0,0.632,0.51,1.146,1.136,1.146   c0.627,0,1.137-0.514,1.137-1.146c0-0.471-0.289-0.89-0.711-1.063v-1.772c0.001-0.059,0.028-0.126,0.048-0.156   c0,0,0.995-0.952,1.171-1.122c0.005-0.005,0.011-0.01,0.016-0.015c0.003-0.003,0.006-0.006,0.008-0.009c0,0,0,0,0.001-0.001   c0.168-0.179,0.348-0.488,0.348-0.82l0-0.604h0.106c0.138,0,0.25-0.112,0.25-0.25v-1.073   C-578.988,30.239-579.1,30.127-579.238,30.127z"/>
	<g>
		<g>
			<path d="M-460.001,93.5v1H-472v-1H-460.001 M-460.001,92.5H-472c-0.553,0-1,0.447-1,1v1c0,0.553,0.447,1,1,1h11.999     c0.553,0,1-0.447,1-1v-1C-459.001,92.947-459.448,92.5-460.001,92.5L-460.001,92.5z"/>
			<path d="M-461.001,90v1H-471v-1H-461.001 M-461.001,89H-471c-0.553,0-1,0.447-1,1v1c0,0.553,0.447,1,1,1h9.999     c0.553,0,1-0.447,1-1v-1C-460.001,89.447-460.448,89-461.001,89L-461.001,89z"/>
			<path d="M-460.001,88.5H-472c-0.277,0-0.5-0.224-0.5-0.5V52.5c0-0.277,0.223-0.5,0.5-0.5h11.999c0.276,0,0.5,0.223,0.5,0.5V88     C-459.501,88.276-459.725,88.5-460.001,88.5z M-471.5,87.5h10.999V53H-471.5V87.5z"/>
			<path d="M-459.98,51.5c-0.008-0.002-0.014,0-0.021,0H-472c-0.168,0-0.324-0.084-0.418-0.225     c-0.092-0.141-0.107-0.318-0.041-0.472l1.5-3.5C-470.881,47.12-470.701,47-470.5,47h8.999c0.2,0,0.381,0.119,0.46,0.303     l1.45,3.383c0.068,0.086,0.11,0.195,0.11,0.314C-459.48,51.275-459.705,51.5-459.98,51.5z M-471.242,50.5h10.483l-1.071-2.5     h-8.34L-471.242,50.5z"/>
			<path d="M-462.001,46.5H-470c-0.551,0-1-0.449-1-1V45c0-0.551,0.449-1,1-1h7.999c0.552,0,1,0.449,1,1v0.5     C-461.001,46.051-461.449,46.5-462.001,46.5z M-462.001,45.5V46V45.5L-462.001,45.5z M-470,45v0.5h7.999V45H-470z"/>
			<path d="M-461.501,43.5h-8.999c-0.277,0-0.5-0.225-0.5-0.5v-4c0-0.277,0.223-0.5,0.5-0.5h8.999c0.276,0,0.5,0.223,0.5,0.5v4     C-461.001,43.276-461.225,43.5-461.501,43.5z M-470,42.5h7.999v-3H-470V42.5z"/>
			<path d="M-461.501,38h-8.999c-0.277,0-0.5-0.225-0.5-0.5v-14c0-0.277,0.223-0.5,0.5-0.5h8.999c0.276,0,0.5,0.223,0.5,0.5v14     C-461.001,37.776-461.225,38-461.501,38z M-470,37h7.999V24H-470V37z"/>
			<path d="M-469.5,87c-0.277,0-0.5-0.224-0.5-0.5V67c0-0.276,0.223-0.5,0.5-0.5c0.275,0,0.5,0.224,0.5,0.5v19.5     C-469,86.776-469.225,87-469.5,87z"/>
			<path d="M-469.5,64.5c-0.277,0-0.5-0.224-0.5-0.5v-6.5c0-0.276,0.223-0.5,0.5-0.5c0.275,0,0.5,0.224,0.5,0.5V64     C-469,64.276-469.225,64.5-469.5,64.5z"/>
		</g>
		
			<rect x="-470" y="14.5" fill="none" stroke="#000000" stroke-linecap="round" stroke-linejoin="round" stroke-miterlimit="10" width="7.999" height="7.5"/>
		<g>
			<path d="M-467.271,18.375h-1.5c-0.068,0-0.125,0.057-0.125,0.125V20c0,0.068,0.057,0.125,0.125,0.125h1.5     c0.07,0,0.125-0.057,0.125-0.125v-1.5C-467.146,18.432-467.201,18.375-467.271,18.375z"/>
			<path d="M-463.271,18.375h-1.5c-0.069,0-0.125,0.057-0.125,0.125V20c0,0.068,0.056,0.125,0.125,0.125h1.5     c0.069,0,0.125-0.057,0.125-0.125v-1.5C-463.146,18.432-463.202,18.375-463.271,18.375z"/>
		</g>
		<path d="M-463.878,27.127h-1.062c-0.138,0-0.25,0.111-0.25,0.25v1.074c0,0.137,0.112,0.25,0.25,0.25h0.104v0.609    c-0.001,0.059-0.027,0.127-0.048,0.156l-0.693,0.662v-3.307h0.188c0.088,0,0.171-0.047,0.216-0.125    c0.044-0.076,0.045-0.172,0.001-0.248l-0.612-1.074c-0.09-0.156-0.346-0.154-0.434,0l-0.613,1.074    c-0.043,0.076-0.043,0.172,0.002,0.248c0.045,0.078,0.127,0.125,0.215,0.125h0.188v4.65l-0.67-0.641    c-0.043-0.055-0.07-0.121-0.07-0.176l-0.002-0.744c0.219-0.143,0.357-0.389,0.357-0.656c0-0.434-0.352-0.787-0.781-0.787    c-0.432,0-0.781,0.354-0.781,0.787c0,0.268,0.137,0.514,0.355,0.656v0.734c0,0.336,0.182,0.646,0.352,0.822    c0.002,0.002,0.002,0.004,0.004,0.006l0,0c0.004,0.002,0.006,0.004,0.008,0.008c0.104,0.098,1.156,1.105,1.158,1.105    c0.043,0.053,0.068,0.119,0.07,0.174v0.436c-0.422,0.174-0.711,0.592-0.711,1.064c0,0.631,0.51,1.145,1.137,1.145    c0.626,0,1.136-0.514,1.136-1.145c0-0.473-0.289-0.891-0.712-1.064v-1.771c0.002-0.059,0.029-0.127,0.049-0.156    c0,0,0.994-0.951,1.171-1.121c0.006-0.004,0.011-0.01,0.016-0.016c0.004-0.002,0.006-0.006,0.009-0.008    c0.001,0,0.001,0,0.001-0.002c0.168-0.178,0.348-0.486,0.348-0.818v-0.604h0.105c0.139,0,0.25-0.113,0.25-0.25v-1.074    C-463.628,27.239-463.739,27.127-463.878,27.127z"/>
	</g>
	<g>
		<path d="M-557.84,96.5v1h-12v-1H-557.84 M-557.84,95.5h-12c-0.552,0-1,0.447-1,1v1c0,0.553,0.448,1,1,1h12c0.552,0,1-0.447,1-1v-1    C-556.84,95.947-557.288,95.5-557.84,95.5L-557.84,95.5z"/>
		<path d="M-558.84,93v1h-10v-1H-558.84 M-558.84,92h-10c-0.552,0-1,0.447-1,1v1c0,0.553,0.448,1,1,1h10c0.552,0,1-0.447,1-1v-1    C-557.84,92.447-558.288,92-558.84,92L-558.84,92z"/>
		<path d="M-557.84,91.5h-12c-0.276,0-0.5-0.224-0.5-0.5V55.5c0-0.276,0.224-0.5,0.5-0.5h12c0.276,0,0.5,0.224,0.5,0.5V91    C-557.34,91.276-557.564,91.5-557.84,91.5z M-569.34,90.5h11V56h-11V90.5z"/>
		<path d="M-557.82,54.5c-0.007-0.001-0.013,0-0.02,0h-12c-0.168,0-0.325-0.084-0.417-0.225c-0.092-0.141-0.108-0.317-0.042-0.473    l1.5-3.5c0.079-0.184,0.259-0.303,0.459-0.303h9c0.2,0,0.381,0.119,0.459,0.303l1.45,3.384c0.069,0.086,0.11,0.195,0.11,0.313    C-557.32,54.276-557.544,54.5-557.82,54.5z M-569.082,53.5h10.483l-1.071-2.5h-8.341L-569.082,53.5z"/>
		<path d="M-559.84,49.5h-8c-0.551,0-1-0.449-1-1V48c0-0.551,0.449-1,1-1h8c0.551,0,1,0.449,1,1v0.5    C-558.84,49.051-559.289,49.5-559.84,49.5z M-559.84,48.5V49V48.5C-559.84,48.5-559.84,48.5-559.84,48.5z M-567.84,48v0.5h8V48    H-567.84z"/>
		<path d="M-559.34,46.5h-9c-0.276,0-0.5-0.224-0.5-0.5v-4c0-0.276,0.224-0.5,0.5-0.5h9c0.276,0,0.5,0.224,0.5,0.5v4    C-558.84,46.276-559.064,46.5-559.34,46.5z M-567.84,45.5h8v-3h-8V45.5z"/>
		<path d="M-559.34,41h-9c-0.276,0-0.5-0.224-0.5-0.5v-14c0-0.276,0.224-0.5,0.5-0.5h9c0.276,0,0.5,0.224,0.5,0.5v14    C-558.84,40.776-559.064,41-559.34,41z M-567.84,40h8V27h-8V40z"/>
		<path d="M-567.34,90c-0.276,0-0.5-0.224-0.5-0.5V70c0-0.276,0.224-0.5,0.5-0.5s0.5,0.224,0.5,0.5v19.5    C-566.84,89.776-567.064,90-567.34,90z"/>
		<path d="M-567.34,67.5c-0.276,0-0.5-0.224-0.5-0.5v-6.5c0-0.276,0.224-0.5,0.5-0.5s0.5,0.224,0.5,0.5V67    C-566.84,67.276-567.064,67.5-567.34,67.5z"/>
		<path d="M-566.84,39.5c-0.276,0-0.5-0.224-0.5-0.5v-4.5c0-0.276,0.224-0.5,0.5-0.5s0.5,0.224,0.5,0.5V39    C-566.34,39.276-566.564,39.5-566.84,39.5z"/>
		<path d="M-566.84,32.5c-0.276,0-0.5-0.224-0.5-0.5v-2c0-0.276,0.224-0.5,0.5-0.5s0.5,0.224,0.5,0.5v2    C-566.34,32.276-566.564,32.5-566.84,32.5z"/>
	</g>
	
		<rect x="-567.84" y="17.5" fill="none" stroke="#000000" stroke-linecap="round" stroke-linejoin="round" stroke-miterlimit="10" width="8" height="7.5"/>
	<g>
		<path d="M-565.09,21.375h-1.5c-0.069,0-0.125,0.056-0.125,0.125V23c0,0.069,0.056,0.125,0.125,0.125h1.5    c0.069,0,0.125-0.056,0.125-0.125v-1.5C-564.965,21.431-565.021,21.375-565.09,21.375z"/>
		<path d="M-561.09,21.375h-1.5c-0.069,0-0.125,0.056-0.125,0.125V23c0,0.069,0.056,0.125,0.125,0.125h1.5    c0.069,0,0.125-0.056,0.125-0.125v-1.5C-560.965,21.431-561.021,21.375-561.09,21.375z"/>
	</g>
	<g>
		<g>
			<path d="M-425,68.037h-1v-12h1V68.037 M-424,68.037v-12c0-0.553-0.447-1-1-1h-1c-0.553,0-1,0.447-1,1v12c0,0.553,0.447,1,1,1h1     C-424.447,69.037-424,68.59-424,68.037L-424,68.037z"/>
			<path d="M-421.5,67.037h-1v-10h1V67.037 M-420.5,67.037v-10c0-0.553-0.447-1-1-1h-1c-0.553,0-1,0.447-1,1v10c0,0.553,0.447,1,1,1     h1C-420.947,68.037-420.5,67.59-420.5,67.037L-420.5,67.037z"/>
			<path d="M-420,68.037v-12c0-0.277,0.223-0.5,0.5-0.5h35.5c0.275,0,0.5,0.223,0.5,0.5v12c0,0.275-0.225,0.5-0.5,0.5h-35.5     C-419.777,68.537-420,68.312-420,68.037z M-419,56.537v11h34.5v-11H-419z"/>
			<path d="M-383,68.057c0-0.008,0-0.014,0-0.02v-12c0-0.168,0.084-0.324,0.225-0.418c0.141-0.092,0.316-0.107,0.473-0.041l3.5,1.5     c0.184,0.078,0.303,0.258,0.303,0.459v9c0,0.199-0.119,0.381-0.303,0.459l-3.385,1.451c-0.086,0.068-0.195,0.109-0.312,0.109     C-382.777,68.557-383,68.332-383,68.057z M-382,56.795v10.484l2.5-1.072v-8.34L-382,56.795z"/>
			<path d="M-378,66.037v-8c0-0.551,0.449-1,1-1h0.5c0.551,0,1,0.449,1,1v8c0,0.551-0.449,1-1,1h-0.5     C-377.551,67.037-378,66.588-378,66.037z M-377,66.037h-0.5H-377L-377,66.037z M-376.5,58.037h-0.5v8h0.5V58.037z"/>
			<path d="M-375,66.537v-9c0-0.277,0.223-0.5,0.5-0.5h4c0.275,0,0.5,0.223,0.5,0.5v9c0,0.275-0.225,0.5-0.5,0.5h-4     C-374.777,67.037-375,66.812-375,66.537z M-374,58.037v8h3v-8H-374z"/>
			<path d="M-369.5,66.537v-9c0-0.277,0.223-0.5,0.5-0.5h14c0.275,0,0.5,0.223,0.5,0.5v9c0,0.275-0.225,0.5-0.5,0.5h-14     C-369.277,67.037-369.5,66.812-369.5,66.537z M-368.5,58.037v8h13v-8H-368.5z"/>
			<path d="M-418.5,58.537c0-0.277,0.223-0.5,0.5-0.5h19.5c0.275,0,0.5,0.223,0.5,0.5c0,0.275-0.225,0.5-0.5,0.5H-418     C-418.277,59.037-418.5,58.812-418.5,58.537z"/>
			<path d="M-396,58.537c0-0.277,0.223-0.5,0.5-0.5h6.5c0.275,0,0.5,0.223,0.5,0.5c0,0.275-0.225,0.5-0.5,0.5h-6.5     C-395.777,59.037-396,58.812-396,58.537z"/>
			<path d="M-368,59.037c0-0.277,0.223-0.5,0.5-0.5h4.5c0.275,0,0.5,0.223,0.5,0.5c0,0.275-0.225,0.5-0.5,0.5h-4.5     C-367.777,59.537-368,59.312-368,59.037z"/>
			<path d="M-361,59.037c0-0.277,0.223-0.5,0.5-0.5h2c0.275,0,0.5,0.223,0.5,0.5c0,0.275-0.225,0.5-0.5,0.5h-2     C-360.777,59.537-361,59.312-361,59.037z"/>
		</g>
		
			<rect x="-353.5" y="58.037" fill="none" stroke="#000000" stroke-linecap="round" stroke-linejoin="round" stroke-miterlimit="10" width="7.5" height="8"/>
		<g>
			<path d="M-349.875,60.787v-1.5c0-0.068-0.057-0.125-0.125-0.125h-1.5c-0.069,0-0.125,0.057-0.125,0.125v1.5     c0,0.068,0.056,0.125,0.125,0.125h1.5C-349.932,60.912-349.875,60.855-349.875,60.787z"/>
			<path d="M-349.875,64.787v-1.5c0-0.068-0.057-0.125-0.125-0.125h-1.5c-0.069,0-0.125,0.057-0.125,0.125v1.5     c0,0.068,0.056,0.125,0.125,0.125h1.5C-349.932,64.912-349.875,64.855-349.875,64.787z"/>
		</g>
	</g>
	<g>
		<path d="M-425,30.111h-1v-12h1V30.111 M-424,30.111v-12c0-0.553-0.447-1-1-1h-1c-0.553,0-1,0.447-1,1v12c0,0.553,0.447,1,1,1h1    C-424.447,31.111-424,30.664-424,30.111L-424,30.111z"/>
		<path d="M-421.5,29.111h-1v-10h1V29.111 M-420.5,29.111v-10c0-0.553-0.447-1-1-1h-1c-0.553,0-1,0.447-1,1v10c0,0.553,0.447,1,1,1    h1C-420.947,30.111-420.5,29.664-420.5,29.111L-420.5,29.111z"/>
		<path d="M-420,30.111v-12c0-0.276,0.224-0.5,0.5-0.5h35.5c0.276,0,0.5,0.224,0.5,0.5v12c0,0.276-0.224,0.5-0.5,0.5h-35.5    C-419.776,30.611-420,30.388-420,30.111z M-419,18.611v11h34.5v-11H-419z"/>
		<path d="M-383,30.131c0.001-0.007,0-0.013,0-0.02v-12c0-0.168,0.084-0.324,0.225-0.418c0.141-0.092,0.317-0.107,0.473-0.041    l3.5,1.5c0.184,0.078,0.303,0.259,0.303,0.459v9c0,0.2-0.119,0.381-0.303,0.459l-3.384,1.451    c-0.086,0.068-0.195,0.109-0.313,0.109C-382.776,30.631-383,30.407-383,30.131z M-382,18.869v10.484l2.5-1.072v-8.34L-382,18.869z    "/>
		<path d="M-378,28.111v-8c0-0.551,0.449-1,1-1h0.5c0.552,0,1,0.449,1,1v8c0,0.551-0.448,1-1,1h-0.5    C-377.551,29.111-378,28.662-378,28.111z M-377,28.111h-0.5H-377C-377,28.111-377,28.111-377,28.111z M-376.5,20.111h-0.5v8h0.5    V20.111z"/>
		<path d="M-375,28.611v-9c0-0.276,0.224-0.5,0.5-0.5h4c0.276,0,0.5,0.224,0.5,0.5v9c0,0.276-0.224,0.5-0.5,0.5h-4    C-374.776,29.111-375,28.888-375,28.611z M-374,20.111v8h3v-8H-374z"/>
		<path d="M-369.5,28.611v-9c0-0.276,0.224-0.5,0.5-0.5h14c0.276,0,0.5,0.224,0.5,0.5v9c0,0.276-0.224,0.5-0.5,0.5h-14    C-369.276,29.111-369.5,28.888-369.5,28.611z M-368.5,20.111v8h13v-8H-368.5z"/>
		<path d="M-354,28.611v-9c0-0.146,0.063-0.285,0.175-0.379c0.11-0.096,0.257-0.138,0.401-0.115    c3.149,0.484,13.424,2.276,13.424,4.994s-10.274,4.51-13.424,4.994c-0.145,0.022-0.291-0.02-0.401-0.115    C-353.937,28.896-354,28.758-354,28.611z M-353,20.197v7.828c5.901-0.958,12-2.715,12-3.914S-347.099,21.154-353,20.197z"/>
		<path d="M-418.5,20.611c0-0.276,0.224-0.5,0.5-0.5h19.5c0.276,0,0.5,0.224,0.5,0.5s-0.224,0.5-0.5,0.5H-418    C-418.276,21.111-418.5,20.888-418.5,20.611z"/>
		<path d="M-396,20.611c0-0.276,0.224-0.5,0.5-0.5h6.5c0.276,0,0.5,0.224,0.5,0.5s-0.224,0.5-0.5,0.5h-6.5    C-395.776,21.111-396,20.888-396,20.611z"/>
		<path d="M-368,21.111c0-0.276,0.224-0.5,0.5-0.5h4.5c0.276,0,0.5,0.224,0.5,0.5s-0.224,0.5-0.5,0.5h-4.5    C-367.776,21.611-368,21.388-368,21.111z"/>
		<path d="M-361,21.111c0-0.276,0.224-0.5,0.5-0.5h2c0.276,0,0.5,0.224,0.5,0.5s-0.224,0.5-0.5,0.5h-2    C-360.776,21.611-361,21.388-361,21.111z"/>
	</g>
	<g>
		<path d="M-425,49.074h-1v-12h1V49.074 M-424,49.074v-12c0-0.553-0.447-1-1-1h-1c-0.553,0-1,0.447-1,1v12c0,0.553,0.447,1,1,1h1    C-424.447,50.074-424,49.627-424,49.074L-424,49.074z"/>
		<path d="M-421.5,48.074h-1v-10h1V48.074 M-420.5,48.074v-10c0-0.553-0.447-1-1-1h-1c-0.553,0-1,0.447-1,1v10c0,0.553,0.447,1,1,1    h1C-420.947,49.074-420.5,48.627-420.5,48.074L-420.5,48.074z"/>
		<path d="M-420,49.074v-12c0-0.276,0.224-0.5,0.5-0.5h35.5c0.276,0,0.5,0.224,0.5,0.5v12c0,0.276-0.224,0.5-0.5,0.5h-35.5    C-419.776,49.574-420,49.351-420,49.074z M-419,37.574v11h34.5v-11H-419z"/>
		<path d="M-383,49.094c0.001-0.007,0-0.013,0-0.02v-12c0-0.168,0.084-0.324,0.225-0.418c0.141-0.092,0.317-0.107,0.473-0.041    l3.5,1.5c0.184,0.078,0.303,0.259,0.303,0.459v9c0,0.2-0.119,0.381-0.303,0.459l-3.384,1.451    c-0.086,0.068-0.195,0.109-0.313,0.109C-382.776,49.594-383,49.37-383,49.094z M-382,37.832v10.484l2.5-1.072v-8.34L-382,37.832z"/>
		<path d="M-378,47.074v-8c0-0.551,0.449-1,1-1h0.5c0.551,0,1,0.449,1,1v8c0,0.551-0.449,1-1,1h-0.5    C-377.551,48.074-378,47.625-378,47.074z M-377,47.074h-0.5H-377C-377,47.074-377,47.074-377,47.074z M-376.5,39.074h-0.5v8h0.5    V39.074z"/>
		<path d="M-375,47.574v-9c0-0.276,0.224-0.5,0.5-0.5h4c0.276,0,0.5,0.224,0.5,0.5v9c0,0.276-0.224,0.5-0.5,0.5h-4    C-374.776,48.074-375,47.851-375,47.574z M-374,39.074v8h3v-8H-374z"/>
		<path d="M-369.5,47.574v-9c0-0.276,0.224-0.5,0.5-0.5h14c0.276,0,0.5,0.224,0.5,0.5v9c0,0.276-0.224,0.5-0.5,0.5h-14    C-369.276,48.074-369.5,47.851-369.5,47.574z M-368.5,39.074v8h13v-8H-368.5z"/>
		<path d="M-354,47.574v-9c0-0.146,0.063-0.285,0.175-0.379c0.11-0.096,0.257-0.138,0.401-0.115    c3.149,0.484,13.424,2.276,13.424,4.994s-10.274,4.51-13.424,4.994c-0.145,0.022-0.291-0.02-0.401-0.115    C-353.937,47.859-354,47.721-354,47.574z M-353,39.16v7.828c5.901-0.958,12-2.715,12-3.914S-347.099,40.117-353,39.16z"/>
		<path d="M-418.5,39.574c0-0.276,0.224-0.5,0.5-0.5h19.5c0.276,0,0.5,0.224,0.5,0.5s-0.224,0.5-0.5,0.5H-418    C-418.276,40.074-418.5,39.851-418.5,39.574z"/>
		<path d="M-396,39.574c0-0.276,0.224-0.5,0.5-0.5h6.5c0.276,0,0.5,0.224,0.5,0.5s-0.224,0.5-0.5,0.5h-6.5    C-395.776,40.074-396,39.851-396,39.574z"/>
		<path d="M-368,40.074c0-0.276,0.224-0.5,0.5-0.5h4.5c0.276,0,0.5,0.224,0.5,0.5s-0.224,0.5-0.5,0.5h-4.5    C-367.776,40.574-368,40.351-368,40.074z"/>
		<path d="M-361,40.074c0-0.276,0.224-0.5,0.5-0.5h2c0.276,0,0.5,0.224,0.5,0.5s-0.224,0.5-0.5,0.5h-2    C-360.776,40.574-361,40.351-361,40.074z"/>
	</g>
	<g>
		<path d="M-425,87h-1V75h1V87 M-424,87V75c0-0.552-0.447-1-1-1h-1c-0.553,0-1,0.448-1,1v12c0,0.553,0.447,1,1,1h1    C-424.447,88-424,87.553-424,87L-424,87z"/>
		<path d="M-421.5,86h-1V76h1V86 M-420.5,86V76c0-0.552-0.447-1-1-1h-1c-0.553,0-1,0.448-1,1v10c0,0.553,0.447,1,1,1h1    C-420.947,87-420.5,86.553-420.5,86L-420.5,86z"/>
		<path d="M-420,87V75c0-0.275,0.224-0.5,0.5-0.5h35.5c0.276,0,0.5,0.225,0.5,0.5v12c0,0.277-0.224,0.5-0.5,0.5h-35.5    C-419.776,87.5-420,87.277-420,87z M-419,75.5v11h34.5v-11H-419z"/>
		<path d="M-383,87.021c0.001-0.007,0-0.013,0-0.021V75c0-0.168,0.084-0.324,0.225-0.417s0.317-0.108,0.473-0.042l3.5,1.5    c0.184,0.078,0.303,0.26,0.303,0.459v9c0,0.201-0.119,0.381-0.303,0.46l-3.384,1.45c-0.086,0.068-0.195,0.11-0.313,0.11    C-382.776,87.521-383,87.297-383,87.021z M-382,75.759v10.483l2.5-1.071V76.83L-382,75.759z"/>
		<path d="M-378,85v-8c0-0.551,0.449-1,1-1h0.5c0.551,0,1,0.449,1,1v8c0,0.552-0.449,1-1,1h-0.5C-377.551,86-378,85.552-378,85z     M-377,85h-0.5l0.5,0.002C-377,85.001-377,85-377,85z M-376.5,77h-0.5v8h0.5V77z"/>
		<path d="M-375,85.5v-9c0-0.275,0.224-0.5,0.5-0.5h4c0.276,0,0.5,0.225,0.5,0.5v9c0,0.277-0.224,0.5-0.5,0.5h-4    C-374.776,86-375,85.777-375,85.5z M-374,77v8h3v-8H-374z"/>
		<path d="M-369.5,85.5v-9c0-0.275,0.224-0.5,0.5-0.5h14c0.276,0,0.5,0.225,0.5,0.5v9c0,0.277-0.224,0.5-0.5,0.5h-14    C-369.276,86-369.5,85.777-369.5,85.5z M-368.5,77v8h13v-8H-368.5z"/>
		<path d="M-354,85.5v-9c0-0.146,0.063-0.284,0.175-0.379c0.11-0.096,0.257-0.137,0.401-0.115C-350.274,76.49-340,78.283-340,81    c0,2.719-10.274,4.51-13.424,4.994c-0.145,0.023-0.291-0.02-0.401-0.114C-353.937,85.785-354,85.646-354,85.5z M-353,77.086v7.829    c5.901-0.958,12-2.716,12-3.915S-347.099,78.044-353,77.086z"/>
		<path d="M-418.5,77.5c0-0.275,0.224-0.5,0.5-0.5h19.5c0.276,0,0.5,0.225,0.5,0.5c0,0.277-0.224,0.5-0.5,0.5H-418    C-418.276,78-418.5,77.777-418.5,77.5z"/>
		<path d="M-396,77.5c0-0.275,0.224-0.5,0.5-0.5h6.5c0.276,0,0.5,0.225,0.5,0.5c0,0.277-0.224,0.5-0.5,0.5h-6.5    C-395.776,78-396,77.777-396,77.5z"/>
		<path d="M-368,78c0-0.275,0.224-0.5,0.5-0.5h4.5c0.276,0,0.5,0.225,0.5,0.5c0,0.277-0.224,0.5-0.5,0.5h-4.5    C-367.776,78.5-368,78.277-368,78z"/>
		<path d="M-361,78c0-0.275,0.224-0.5,0.5-0.5h2c0.276,0,0.5,0.225,0.5,0.5c0,0.277-0.224,0.5-0.5,0.5h-2    C-360.776,78.5-361,78.277-361,78z"/>
	</g>
	<g>
		<g>
			<path d="M-256.574,93v1h-12v-1H-256.574 M-256.574,92h-12c-0.553,0-1,0.447-1,1v1c0,0.553,0.447,1,1,1h12c0.553,0,1-0.447,1-1v-1     C-255.574,92.447-256.021,92-256.574,92L-256.574,92z"/>
			<path d="M-257.574,89.5v1h-10v-1H-257.574 M-257.574,88.5h-10c-0.553,0-1,0.447-1,1v1c0,0.553,0.447,1,1,1h10     c0.553,0,1-0.447,1-1v-1C-256.574,88.947-257.021,88.5-257.574,88.5L-257.574,88.5z"/>
			<path d="M-256.574,88h-12c-0.277,0-0.5-0.223-0.5-0.5V52c0-0.275,0.223-0.5,0.5-0.5h12c0.275,0,0.5,0.225,0.5,0.5v35.5     C-256.074,87.777-256.299,88-256.574,88z M-268.074,87h11V52.5h-11V87z"/>
			<path d="M-256.555,51c-0.008,0-0.014,0-0.02,0h-12c-0.168,0-0.324-0.084-0.418-0.225c-0.092-0.141-0.107-0.316-0.041-0.473     l1.5-3.5c0.078-0.184,0.258-0.303,0.459-0.303h9c0.199,0,0.381,0.119,0.459,0.303l1.451,3.385     c0.068,0.086,0.109,0.195,0.109,0.312C-256.055,50.777-256.279,51-256.555,51z M-267.816,50h10.484l-1.072-2.5h-8.34L-267.816,50     z"/>
			<path d="M-258.574,46h-8c-0.551,0-1-0.449-1-1v-0.5c0-0.551,0.449-1,1-1h8c0.551,0,1,0.449,1,1V45     C-257.574,45.551-258.023,46-258.574,46z M-258.574,45v0.5V45L-258.574,45z M-266.574,44.5V45h8v-0.5H-266.574z"/>
			<path d="M-258.074,43h-9c-0.277,0-0.5-0.223-0.5-0.5v-4c0-0.275,0.223-0.5,0.5-0.5h9c0.275,0,0.5,0.225,0.5,0.5v4     C-257.574,42.777-257.799,43-258.074,43z M-266.574,42h8v-3h-8V42z"/>
			<path d="M-258.074,37.5h-9c-0.277,0-0.5-0.223-0.5-0.5V23c0-0.275,0.223-0.5,0.5-0.5h9c0.275,0,0.5,0.225,0.5,0.5v14     C-257.574,37.277-257.799,37.5-258.074,37.5z M-266.574,36.5h8v-13h-8V36.5z"/>
			<path d="M-266.074,86.5c-0.277,0-0.5-0.223-0.5-0.5V66.5c0-0.275,0.223-0.5,0.5-0.5c0.275,0,0.5,0.225,0.5,0.5V86     C-265.574,86.277-265.799,86.5-266.074,86.5z"/>
			<path d="M-266.074,64c-0.277,0-0.5-0.223-0.5-0.5V57c0-0.275,0.223-0.5,0.5-0.5c0.275,0,0.5,0.225,0.5,0.5v6.5     C-265.574,63.777-265.799,64-266.074,64z"/>
			<path d="M-265.574,36c-0.277,0-0.5-0.223-0.5-0.5V31c0-0.275,0.223-0.5,0.5-0.5c0.275,0,0.5,0.225,0.5,0.5v4.5     C-265.074,35.777-265.299,36-265.574,36z"/>
			<path d="M-265.574,29c-0.277,0-0.5-0.223-0.5-0.5v-2c0-0.275,0.223-0.5,0.5-0.5c0.275,0,0.5,0.225,0.5,0.5v2     C-265.074,28.777-265.299,29-265.574,29z"/>
		</g>
		
			<rect x="-266.574" y="14" fill="none" stroke="#000000" stroke-linecap="round" stroke-linejoin="round" stroke-miterlimit="10" width="8" height="7.5"/>
		<g>
			<path d="M-263.824,17.875h-1.5c-0.068,0-0.125,0.057-0.125,0.125v1.5c0,0.069,0.057,0.125,0.125,0.125h1.5     c0.068,0,0.125-0.056,0.125-0.125V18C-263.699,17.932-263.756,17.875-263.824,17.875z"/>
			<path d="M-259.824,17.875h-1.5c-0.068,0-0.125,0.057-0.125,0.125v1.5c0,0.069,0.057,0.125,0.125,0.125h1.5     c0.068,0,0.125-0.056,0.125-0.125V18C-259.699,17.932-259.756,17.875-259.824,17.875z"/>
		</g>
	</g>
	<g>
		<path d="M-294.5,93v1h-12v-1H-294.5 M-294.5,92h-12c-0.553,0-1,0.447-1,1v1c0,0.553,0.447,1,1,1h12c0.553,0,1-0.447,1-1v-1    C-293.5,92.447-293.947,92-294.5,92L-294.5,92z"/>
		<path d="M-295.5,89.5v1h-10v-1H-295.5 M-295.5,88.5h-10c-0.553,0-1,0.447-1,1v1c0,0.553,0.447,1,1,1h10c0.553,0,1-0.447,1-1v-1    C-294.5,88.947-294.947,88.5-295.5,88.5L-295.5,88.5z"/>
		<path d="M-294.5,88h-12c-0.276,0-0.5-0.224-0.5-0.5V52c0-0.276,0.224-0.5,0.5-0.5h12c0.276,0,0.5,0.224,0.5,0.5v35.5    C-294,87.776-294.224,88-294.5,88z M-306,87h11V52.5h-11V87z"/>
		<path d="M-294.48,51c-0.007-0.001-0.013,0-0.02,0h-12c-0.168,0-0.324-0.084-0.418-0.225c-0.092-0.141-0.107-0.317-0.041-0.473    l1.5-3.5c0.078-0.184,0.259-0.303,0.459-0.303h9c0.2,0,0.381,0.119,0.459,0.303l1.451,3.384c0.068,0.086,0.109,0.195,0.109,0.313    C-293.98,50.776-294.204,51-294.48,51z M-305.742,50h10.484l-1.072-2.5h-8.34L-305.742,50z"/>
		<path d="M-296.5,46h-8c-0.551,0-1-0.449-1-1v-0.5c0-0.552,0.449-1,1-1h8c0.551,0,1,0.448,1,1V45    C-295.5,45.551-295.949,46-296.5,46z M-296.5,45v0.5V45C-296.5,45-296.5,45-296.5,45z M-304.5,44.5V45h8v-0.5H-304.5z"/>
		<path d="M-296,43h-9c-0.276,0-0.5-0.224-0.5-0.5v-4c0-0.276,0.224-0.5,0.5-0.5h9c0.276,0,0.5,0.224,0.5,0.5v4    C-295.5,42.776-295.724,43-296,43z M-304.5,42h8v-3h-8V42z"/>
		<path d="M-296,37.5h-9c-0.276,0-0.5-0.224-0.5-0.5V23c0-0.276,0.224-0.5,0.5-0.5h9c0.276,0,0.5,0.224,0.5,0.5v14    C-295.5,37.276-295.724,37.5-296,37.5z M-304.5,36.5h8v-13h-8V36.5z"/>
		<path d="M-296,22h-9c-0.146,0-0.285-0.063-0.379-0.175c-0.096-0.11-0.138-0.257-0.115-0.401C-305.01,18.274-303.218,8-300.5,8    s4.51,10.274,4.994,13.424c0.022,0.145-0.02,0.291-0.115,0.401C-295.715,21.937-295.854,22-296,22z M-304.414,21h7.828    c-0.958-5.901-2.715-12-3.914-12S-303.457,15.099-304.414,21z"/>
		<path d="M-304,86.5c-0.276,0-0.5-0.224-0.5-0.5V66.5c0-0.276,0.224-0.5,0.5-0.5s0.5,0.224,0.5,0.5V86    C-303.5,86.276-303.724,86.5-304,86.5z"/>
		<path d="M-304,64c-0.276,0-0.5-0.224-0.5-0.5V57c0-0.276,0.224-0.5,0.5-0.5s0.5,0.224,0.5,0.5v6.5    C-303.5,63.776-303.724,64-304,64z"/>
		<path d="M-303.5,36c-0.276,0-0.5-0.224-0.5-0.5V31c0-0.276,0.224-0.5,0.5-0.5s0.5,0.224,0.5,0.5v4.5    C-303,35.776-303.224,36-303.5,36z"/>
		<path d="M-303.5,29c-0.276,0-0.5-0.224-0.5-0.5v-2c0-0.276,0.224-0.5,0.5-0.5s0.5,0.224,0.5,0.5v2    C-303,28.776-303.224,29-303.5,29z"/>
	</g>
	<g>
		<path d="M-275.537,93v1h-12v-1H-275.537 M-275.537,92h-12c-0.553,0-1,0.447-1,1v1c0,0.553,0.447,1,1,1h12c0.553,0,1-0.447,1-1v-1    C-274.537,92.447-274.984,92-275.537,92L-275.537,92z"/>
		<path d="M-276.537,89.5v1h-10v-1H-276.537 M-276.537,88.5h-10c-0.553,0-1,0.447-1,1v1c0,0.553,0.447,1,1,1h10c0.553,0,1-0.447,1-1    v-1C-275.537,88.947-275.984,88.5-276.537,88.5L-276.537,88.5z"/>
		<path d="M-275.537,88h-12c-0.276,0-0.5-0.224-0.5-0.5V52c0-0.276,0.224-0.5,0.5-0.5h12c0.276,0,0.5,0.224,0.5,0.5v35.5    C-275.037,87.776-275.261,88-275.537,88z M-287.037,87h11V52.5h-11V87z"/>
		<path d="M-275.518,51c-0.007-0.001-0.013,0-0.02,0h-12c-0.168,0-0.324-0.084-0.418-0.225c-0.092-0.141-0.107-0.317-0.041-0.473    l1.5-3.5c0.078-0.184,0.259-0.303,0.459-0.303h9c0.2,0,0.381,0.119,0.459,0.303l1.451,3.384c0.068,0.086,0.109,0.195,0.109,0.313    C-275.018,50.776-275.241,51-275.518,51z M-286.779,50h10.484l-1.072-2.5h-8.34L-286.779,50z"/>
		<path d="M-277.537,46h-8c-0.551,0-1-0.449-1-1v-0.5c0-0.551,0.449-1,1-1h8c0.551,0,1,0.449,1,1V45    C-276.537,45.551-276.986,46-277.537,46z M-277.537,45v0.5V45L-277.537,45z M-285.537,44.5V45h8v-0.5H-285.537z"/>
		<path d="M-277.037,43h-9c-0.276,0-0.5-0.224-0.5-0.5v-4c0-0.276,0.224-0.5,0.5-0.5h9c0.276,0,0.5,0.224,0.5,0.5v4    C-276.537,42.776-276.761,43-277.037,43z M-285.537,42h8v-3h-8V42z"/>
		<path d="M-277.037,37.5h-9c-0.276,0-0.5-0.224-0.5-0.5V23c0-0.276,0.224-0.5,0.5-0.5h9c0.276,0,0.5,0.224,0.5,0.5v14    C-276.537,37.276-276.761,37.5-277.037,37.5z M-285.537,36.5h8v-13h-8V36.5z"/>
		<path d="M-277.037,22h-9c-0.146,0-0.285-0.063-0.379-0.175c-0.096-0.11-0.138-0.257-0.115-0.401    C-286.047,18.274-284.255,8-281.537,8s4.51,10.274,4.994,13.424c0.022,0.145-0.02,0.291-0.115,0.401    C-276.752,21.937-276.891,22-277.037,22z M-285.451,21h7.828c-0.958-5.901-2.715-12-3.914-12S-284.494,15.099-285.451,21z"/>
		<path d="M-285.037,86.5c-0.276,0-0.5-0.224-0.5-0.5V66.5c0-0.276,0.224-0.5,0.5-0.5s0.5,0.224,0.5,0.5V86    C-284.537,86.276-284.761,86.5-285.037,86.5z"/>
		<path d="M-285.037,64c-0.276,0-0.5-0.224-0.5-0.5V57c0-0.276,0.224-0.5,0.5-0.5s0.5,0.224,0.5,0.5v6.5    C-284.537,63.776-284.761,64-285.037,64z"/>
		<path d="M-284.537,36c-0.276,0-0.5-0.224-0.5-0.5V31c0-0.276,0.224-0.5,0.5-0.5s0.5,0.224,0.5,0.5v4.5    C-284.037,35.776-284.261,36-284.537,36z"/>
		<path d="M-284.537,29c-0.276,0-0.5-0.224-0.5-0.5v-2c0-0.276,0.224-0.5,0.5-0.5s0.5,0.224,0.5,0.5v2    C-284.037,28.776-284.261,29-284.537,29z"/>
	</g>
	<g>
		<path d="M-237.611,93v1h-12v-1H-237.611 M-237.611,92h-12c-0.552,0-1,0.447-1,1v1c0,0.553,0.448,1,1,1h12c0.553,0,1-0.447,1-1v-1    C-236.611,92.447-237.059,92-237.611,92L-237.611,92z"/>
		<path d="M-238.611,89.5v1h-10v-1H-238.611 M-238.611,88.5h-10c-0.552,0-1,0.447-1,1v1c0,0.553,0.448,1,1,1h10c0.553,0,1-0.447,1-1    v-1C-237.611,88.947-238.059,88.5-238.611,88.5L-238.611,88.5z"/>
		<path d="M-237.611,88h-12c-0.275,0-0.5-0.224-0.5-0.5V52c0-0.276,0.225-0.5,0.5-0.5h12c0.277,0,0.5,0.224,0.5,0.5v35.5    C-237.111,87.776-237.334,88-237.611,88z M-249.111,87h11V52.5h-11V87z"/>
		<path d="M-237.591,51c-0.007-0.001-0.013,0-0.021,0h-12c-0.168,0-0.324-0.084-0.417-0.225s-0.108-0.317-0.042-0.473l1.5-3.5    c0.078-0.184,0.26-0.303,0.459-0.303h9c0.201,0,0.381,0.119,0.46,0.303l1.45,3.384c0.068,0.086,0.11,0.195,0.11,0.313    C-237.091,50.776-237.314,51-237.591,51z M-248.853,50h10.483l-1.071-2.5h-8.341L-248.853,50z"/>
		<path d="M-239.611,46h-8c-0.551,0-1-0.449-1-1v-0.5c0-0.551,0.449-1,1-1h8c0.552,0,1,0.449,1,1V45    C-238.611,45.551-239.06,46-239.611,46z M-239.611,45v0.5l0.002-0.5C-239.61,45-239.611,45-239.611,45z M-247.611,44.5V45h8v-0.5    H-247.611z"/>
		<path d="M-239.111,43h-9c-0.275,0-0.5-0.224-0.5-0.5v-4c0-0.276,0.225-0.5,0.5-0.5h9c0.277,0,0.5,0.224,0.5,0.5v4    C-238.611,42.776-238.834,43-239.111,43z M-247.611,42h8v-3h-8V42z"/>
		<path d="M-239.111,37.5h-9c-0.275,0-0.5-0.224-0.5-0.5V23c0-0.276,0.225-0.5,0.5-0.5h9c0.277,0,0.5,0.224,0.5,0.5v14    C-238.611,37.276-238.834,37.5-239.111,37.5z M-247.611,36.5h8v-13h-8V36.5z"/>
		<path d="M-239.111,22h-9c-0.146,0-0.284-0.063-0.379-0.175c-0.096-0.11-0.137-0.257-0.115-0.401    C-248.121,18.274-246.328,8-243.611,8c2.719,0,4.51,10.274,4.994,13.424c0.023,0.145-0.02,0.291-0.114,0.401    C-238.826,21.937-238.965,22-239.111,22z M-247.525,21h7.829c-0.958-5.901-2.716-12-3.915-12S-246.567,15.099-247.525,21z"/>
		<path d="M-247.111,86.5c-0.275,0-0.5-0.224-0.5-0.5V66.5c0-0.276,0.225-0.5,0.5-0.5c0.277,0,0.5,0.224,0.5,0.5V86    C-246.611,86.276-246.834,86.5-247.111,86.5z"/>
		<path d="M-247.111,64c-0.275,0-0.5-0.224-0.5-0.5V57c0-0.276,0.225-0.5,0.5-0.5c0.277,0,0.5,0.224,0.5,0.5v6.5    C-246.611,63.776-246.834,64-247.111,64z"/>
		<path d="M-246.611,36c-0.275,0-0.5-0.224-0.5-0.5V31c0-0.276,0.225-0.5,0.5-0.5c0.277,0,0.5,0.224,0.5,0.5v4.5    C-246.111,35.776-246.334,36-246.611,36z"/>
		<path d="M-246.611,29c-0.275,0-0.5-0.224-0.5-0.5v-2c0-0.276,0.225-0.5,0.5-0.5c0.277,0,0.5,0.224,0.5,0.5v2    C-246.111,28.776-246.334,29-246.611,29z"/>
	</g>
	<g>
		<path d="M-521.777,93.5v1h-12v-1H-521.777 M-521.777,92.5h-12c-0.552,0-1,0.447-1,1v1c0,0.553,0.448,1,1,1h12c0.552,0,1-0.447,1-1    v-1C-520.777,92.947-521.225,92.5-521.777,92.5L-521.777,92.5z"/>
		<path d="M-522.777,90v1h-10v-1H-522.777 M-522.777,89h-10c-0.552,0-1,0.447-1,1v1c0,0.553,0.448,1,1,1h10c0.552,0,1-0.447,1-1v-1    C-521.777,89.447-522.225,89-522.777,89L-522.777,89z"/>
		<path d="M-521.777,88.5h-12c-0.276,0-0.5-0.224-0.5-0.5V52.5c0-0.276,0.224-0.5,0.5-0.5h12c0.276,0,0.5,0.224,0.5,0.5V88    C-521.277,88.276-521.501,88.5-521.777,88.5z M-533.277,87.5h11V53h-11V87.5z"/>
		<path d="M-521.757,51.5c-0.007-0.001-0.013,0-0.02,0h-12c-0.168,0-0.325-0.084-0.417-0.225c-0.092-0.141-0.108-0.317-0.042-0.473    l1.5-3.5c0.079-0.184,0.259-0.303,0.459-0.303h9c0.2,0,0.381,0.119,0.459,0.303l1.45,3.384c0.069,0.086,0.11,0.195,0.11,0.313    C-521.257,51.276-521.481,51.5-521.757,51.5z M-533.019,50.5h10.483l-1.071-2.5h-8.341L-533.019,50.5z"/>
		<path d="M-523.777,46.5h-8c-0.551,0-1-0.449-1-1V45c0-0.551,0.449-1,1-1h8c0.551,0,1,0.449,1,1v0.5    C-522.777,46.051-523.226,46.5-523.777,46.5z M-523.777,45.5V46V45.5C-523.777,45.5-523.777,45.5-523.777,45.5z M-531.777,45v0.5    h8V45H-531.777z"/>
		<path d="M-523.277,43.5h-9c-0.276,0-0.5-0.224-0.5-0.5v-4c0-0.276,0.224-0.5,0.5-0.5h9c0.276,0,0.5,0.224,0.5,0.5v4    C-522.777,43.276-523.001,43.5-523.277,43.5z M-531.777,42.5h8v-3h-8V42.5z"/>
		<path d="M-523.277,38h-9c-0.276,0-0.5-0.224-0.5-0.5v-14c0-0.276,0.224-0.5,0.5-0.5h9c0.276,0,0.5,0.224,0.5,0.5v14    C-522.777,37.776-523.001,38-523.277,38z M-531.777,37h8V24h-8V37z"/>
		<path d="M-523.277,22.5h-9c-0.146,0-0.285-0.063-0.379-0.174c-0.095-0.111-0.137-0.257-0.115-0.402    c0.484-3.149,2.276-13.424,4.994-13.424s4.51,10.275,4.994,13.424c0.022,0.145-0.02,0.291-0.115,0.402    C-522.993,22.437-523.131,22.5-523.277,22.5z M-531.692,21.5h7.829c-0.958-5.901-2.715-12-3.915-12    C-528.977,9.5-530.734,15.599-531.692,21.5z"/>
		<path d="M-531.277,87c-0.276,0-0.5-0.224-0.5-0.5V67c0-0.276,0.224-0.5,0.5-0.5s0.5,0.224,0.5,0.5v19.5    C-530.777,86.776-531.001,87-531.277,87z"/>
		<path d="M-531.277,64.5c-0.276,0-0.5-0.224-0.5-0.5v-6.5c0-0.276,0.224-0.5,0.5-0.5s0.5,0.224,0.5,0.5V64    C-530.777,64.276-531.001,64.5-531.277,64.5z"/>
		<path d="M-530.777,36.5c-0.276,0-0.5-0.224-0.5-0.5v-4.5c0-0.276,0.224-0.5,0.5-0.5s0.5,0.224,0.5,0.5V36    C-530.277,36.276-530.501,36.5-530.777,36.5z"/>
		<path d="M-530.777,29.5c-0.276,0-0.5-0.224-0.5-0.5v-2c0-0.276,0.224-0.5,0.5-0.5s0.5,0.224,0.5,0.5v2    C-530.277,29.276-530.501,29.5-530.777,29.5z"/>
	</g>
	<g>
		<path d="M-501.185,93.5v1h-12v-1H-501.185 M-501.185,92.5h-12c-0.552,0-1,0.447-1,1v1c0,0.553,0.448,1,1,1h12c0.552,0,1-0.447,1-1    v-1C-500.185,92.947-500.633,92.5-501.185,92.5L-501.185,92.5z"/>
		<path d="M-502.185,90v1h-10v-1H-502.185 M-502.185,89h-10c-0.552,0-1,0.447-1,1v1c0,0.553,0.448,1,1,1h10c0.552,0,1-0.447,1-1v-1    C-501.185,89.447-501.633,89-502.185,89L-502.185,89z"/>
		<path d="M-501.185,88.5h-12c-0.276,0-0.5-0.224-0.5-0.5V52.5c0-0.276,0.224-0.5,0.5-0.5h12c0.276,0,0.5,0.224,0.5,0.5V88    C-500.685,88.276-500.909,88.5-501.185,88.5z M-512.685,87.5h11V53h-11V87.5z"/>
		<path d="M-501.165,51.5c-0.007-0.001-0.013,0-0.02,0h-12c-0.168,0-0.325-0.084-0.417-0.225c-0.092-0.141-0.108-0.317-0.042-0.473    l1.5-3.5c0.079-0.184,0.259-0.303,0.459-0.303h9c0.2,0,0.381,0.119,0.459,0.303l1.45,3.384c0.069,0.086,0.11,0.195,0.11,0.313    C-500.665,51.276-500.889,51.5-501.165,51.5z M-512.427,50.5h10.483l-1.071-2.5h-8.341L-512.427,50.5z"/>
		<path d="M-503.185,46.5h-8c-0.551,0-1-0.449-1-1V45c0-0.551,0.449-1,1-1h8c0.551,0,1,0.449,1,1v0.5    C-502.185,46.051-502.634,46.5-503.185,46.5z M-503.185,45.5V46V45.5L-503.185,45.5z M-511.185,45v0.5h8V45H-511.185z"/>
		<path d="M-502.685,43.5h-9c-0.276,0-0.5-0.224-0.5-0.5v-4c0-0.276,0.224-0.5,0.5-0.5h9c0.276,0,0.5,0.224,0.5,0.5v4    C-502.185,43.276-502.409,43.5-502.685,43.5z M-511.185,42.5h8v-3h-8V42.5z"/>
		<path d="M-502.685,38h-9c-0.276,0-0.5-0.224-0.5-0.5v-14c0-0.276,0.224-0.5,0.5-0.5h9c0.276,0,0.5,0.224,0.5,0.5v14    C-502.185,37.776-502.409,38-502.685,38z M-511.185,37h8V24h-8V37z"/>
		<path d="M-502.685,22.5h-9c-0.146,0-0.285-0.063-0.379-0.174c-0.095-0.111-0.137-0.257-0.115-0.402    c0.484-3.149,2.276-13.424,4.994-13.424s4.51,10.275,4.994,13.424c0.022,0.145-0.02,0.291-0.115,0.402    C-502.4,22.437-502.539,22.5-502.685,22.5z M-511.1,21.5h7.829c-0.958-5.901-2.715-12-3.915-12    C-508.385,9.5-510.142,15.599-511.1,21.5z"/>
		<path d="M-510.685,87c-0.276,0-0.5-0.224-0.5-0.5V67c0-0.276,0.224-0.5,0.5-0.5s0.5,0.224,0.5,0.5v19.5    C-510.185,86.776-510.409,87-510.685,87z"/>
		<path d="M-510.685,64.5c-0.276,0-0.5-0.224-0.5-0.5v-6.5c0-0.276,0.224-0.5,0.5-0.5s0.5,0.224,0.5,0.5V64    C-510.185,64.276-510.409,64.5-510.685,64.5z"/>
		<path d="M-510.185,36.5c-0.276,0-0.5-0.224-0.5-0.5v-4.5c0-0.276,0.224-0.5,0.5-0.5s0.5,0.224,0.5,0.5V36    C-509.685,36.276-509.909,36.5-510.185,36.5z"/>
		<path d="M-510.185,29.5c-0.276,0-0.5-0.224-0.5-0.5v-2c0-0.276,0.224-0.5,0.5-0.5s0.5,0.224,0.5,0.5v2    C-509.685,29.276-509.909,29.5-510.185,29.5z"/>
	</g>
	<g>
		<path d="M-480.594,93.5v1h-11.999v-1H-480.594 M-480.594,92.5h-11.999c-0.552,0-1,0.447-1,1v1c0,0.553,0.448,1,1,1h11.999    c0.553,0,1-0.447,1-1v-1C-479.594,92.947-480.041,92.5-480.594,92.5L-480.594,92.5z"/>
		<path d="M-481.594,90v1h-9.999v-1H-481.594 M-481.594,89h-9.999c-0.552,0-1,0.447-1,1v1c0,0.553,0.448,1,1,1h9.999    c0.553,0,1-0.447,1-1v-1C-480.594,89.447-481.041,89-481.594,89L-481.594,89z"/>
		<path d="M-480.594,88.5h-11.999c-0.276,0-0.5-0.224-0.5-0.5V52.5c0-0.276,0.224-0.5,0.5-0.5h11.999c0.277,0,0.5,0.224,0.5,0.5V88    C-480.094,88.276-480.316,88.5-480.594,88.5z M-492.093,87.5h10.999V53h-10.999V87.5z"/>
		<path d="M-480.572,51.5c-0.008-0.001-0.014,0-0.021,0h-11.999c-0.168,0-0.325-0.084-0.417-0.225    c-0.092-0.141-0.108-0.317-0.042-0.473l1.5-3.5c0.079-0.184,0.259-0.303,0.459-0.303h8.999c0.201,0,0.381,0.119,0.461,0.303    l1.449,3.384c0.068,0.086,0.111,0.195,0.111,0.313C-480.072,51.276-480.297,51.5-480.572,51.5z M-491.834,50.5h10.483l-1.07-2.5    h-8.342L-491.834,50.5z"/>
		<path d="M-482.594,46.5h-7.999c-0.551,0-1-0.449-1-1V45c0-0.551,0.449-1,1-1h7.999c0.553,0,1,0.449,1,1v0.5    C-481.594,46.051-482.041,46.5-482.594,46.5z M-482.594,45.5V46l0.002-0.5H-482.594z M-490.593,45v0.5h7.999V45H-490.593z"/>
		<path d="M-482.094,43.5h-8.999c-0.276,0-0.5-0.224-0.5-0.5v-4c0-0.276,0.224-0.5,0.5-0.5h8.999c0.277,0,0.5,0.224,0.5,0.5v4    C-481.594,43.276-481.816,43.5-482.094,43.5z M-490.593,42.5h7.999v-3h-7.999V42.5z"/>
		<path d="M-482.094,38h-8.999c-0.276,0-0.5-0.224-0.5-0.5v-14c0-0.276,0.224-0.5,0.5-0.5h8.999c0.277,0,0.5,0.224,0.5,0.5v14    C-481.594,37.776-481.816,38-482.094,38z M-490.593,37h7.999V24h-7.999V37z"/>
		<path d="M-482.094,22.5h-8.999c-0.146,0-0.285-0.063-0.379-0.174c-0.095-0.111-0.137-0.257-0.115-0.402    c0.484-3.149,2.276-13.424,4.994-13.424s4.509,10.275,4.993,13.424c0.023,0.145-0.02,0.291-0.113,0.402    C-481.809,22.437-481.947,22.5-482.094,22.5z M-490.508,21.5h7.83c-0.959-5.901-2.717-12-3.915-12    C-487.793,9.5-489.549,15.599-490.508,21.5z"/>
		<path d="M-490.093,87c-0.276,0-0.5-0.224-0.5-0.5V67c0-0.276,0.224-0.5,0.5-0.5s0.5,0.224,0.5,0.5v19.5    C-489.593,86.776-489.816,87-490.093,87z"/>
		<path d="M-490.093,64.5c-0.276,0-0.5-0.224-0.5-0.5v-6.5c0-0.276,0.224-0.5,0.5-0.5s0.5,0.224,0.5,0.5V64    C-489.593,64.276-489.816,64.5-490.093,64.5z"/>
		<path d="M-489.593,36.5c-0.276,0-0.5-0.224-0.5-0.5v-4.5c0-0.276,0.224-0.5,0.5-0.5s0.5,0.224,0.5,0.5V36    C-489.093,36.276-489.316,36.5-489.593,36.5z"/>
		<path d="M-489.593,29.5c-0.276,0-0.5-0.224-0.5-0.5v-2c0-0.276,0.224-0.5,0.5-0.5s0.5,0.224,0.5,0.5v2    C-489.093,29.276-489.316,29.5-489.593,29.5z"/>
	</g>
	<path d="M-120,92v1h-11.999v-1H-120 M-120,91h-11.999c-0.553,0-1,0.447-1,1v1c0,0.553,0.447,1,1,1H-120c0.553,0,1-0.447,1-1v-1   C-119,91.447-119.447,91-120,91L-120,91z"/>
	<path d="M-121,88.5v1h-9.999v-1H-121 M-121,87.5h-9.999c-0.553,0-1,0.447-1,1v1c0,0.553,0.447,1,1,1H-121c0.553,0,1-0.447,1-1v-1   C-120,87.947-120.447,87.5-121,87.5L-121,87.5z"/>
	<path d="M-120,87h-11.999c-0.277,0-0.5-0.225-0.5-0.5V51c0-0.277,0.223-0.5,0.5-0.5H-120c0.276,0,0.5,0.223,0.5,0.5v35.5   C-119.5,86.775-119.724,87-120,87z M-131.499,86h10.999V51.5h-10.999V86z"/>
	<path d="M-119.979,50c-0.008-0.002-0.014,0-0.021,0h-11.999c-0.168,0-0.324-0.084-0.418-0.225   c-0.092-0.141-0.107-0.318-0.041-0.473l1.5-3.5c0.078-0.184,0.258-0.303,0.459-0.303h8.999c0.2,0,0.381,0.119,0.46,0.303   l1.45,3.383c0.068,0.086,0.11,0.195,0.11,0.314C-119.479,49.775-119.704,50-119.979,50z M-131.241,49h10.483l-1.071-2.5h-8.34   L-131.241,49z"/>
	<path d="M-122,45h-7.999c-0.551,0-1-0.449-1-1v-0.5c0-0.551,0.449-1,1-1H-122c0.552,0,1,0.449,1,1V44   C-121,44.551-121.448,45-122,45z M-122,44v0.5V44L-122,44z M-129.999,43.5V44H-122v-0.5H-129.999z"/>
	<path d="M-121.5,42h-8.999c-0.277,0-0.5-0.225-0.5-0.5v-4c0-0.277,0.223-0.5,0.5-0.5h8.999c0.276,0,0.5,0.223,0.5,0.5v4   C-121,41.775-121.224,42-121.5,42z M-129.999,41H-122v-3h-7.999V41z"/>
	<path d="M-129.499,85.5c-0.277,0-0.5-0.225-0.5-0.5V65.5c0-0.277,0.223-0.5,0.5-0.5c0.275,0,0.5,0.223,0.5,0.5V85   C-128.999,85.275-129.224,85.5-129.499,85.5z"/>
	<path d="M-129.499,63c-0.277,0-0.5-0.225-0.5-0.5V56c0-0.277,0.223-0.5,0.5-0.5c0.275,0,0.5,0.223,0.5,0.5v6.5   C-128.999,62.775-129.224,63-129.499,63z"/>
	<g>
		<path d="M-121.5,36.5h-8.999c-0.277,0-0.5-0.225-0.5-0.5V22c0-0.277,0.223-0.5,0.5-0.5h8.999c0.276,0,0.5,0.223,0.5,0.5v14    C-121,36.275-121.224,36.5-121.5,36.5z M-129.999,35.5H-122v-13h-7.999V35.5z"/>
		
			<rect x="-129.999" y="13" fill="none" stroke="#000000" stroke-linecap="round" stroke-linejoin="round" stroke-miterlimit="10" width="7.999" height="7.5"/>
		<g>
			<path d="M-127.271,16.875h-1.5c-0.068,0-0.125,0.057-0.125,0.125v1.5c0,0.068,0.057,0.125,0.125,0.125h1.5     c0.07,0,0.125-0.057,0.125-0.125V17C-127.146,16.932-127.2,16.875-127.271,16.875z"/>
			<path d="M-123.271,16.875h-1.5c-0.069,0-0.125,0.057-0.125,0.125v1.5c0,0.068,0.056,0.125,0.125,0.125h1.5     c0.069,0,0.125-0.057,0.125-0.125V17C-123.146,16.932-123.201,16.875-123.271,16.875z"/>
		</g>
		<path d="M-123.936,25.824h-1.031c-0.026,0-0.048,0.021-0.048,0.047v1.043c0,0.026,0.021,0.047,0.048,0.047h0.299    c-0.001,0.093-0.001,0.332-0.001,0.792c-0.003,0.101-0.043,0.208-0.107,0.291l-1.006,0.962v-3.871h0.379    c0.018,0,0.032-0.009,0.041-0.023c0.008-0.015,0.008-0.033,0-0.047l-0.596-1.043c-0.018-0.029-0.065-0.029-0.082,0l-0.596,1.043    c-0.009,0.014-0.009,0.032,0,0.047c0.009,0.014,0.023,0.023,0.041,0.023h0.378v5.175l-1.001-0.958    c-0.069-0.087-0.109-0.194-0.112-0.293v-0.84c0.208-0.088,0.346-0.294,0.346-0.522c0-0.313-0.253-0.568-0.563-0.568    s-0.562,0.255-0.562,0.568c0,0.229,0.138,0.435,0.346,0.522v0.83c0,0.22,0.112,0.48,0.286,0.664    c0.001,0.002,0.003,0.003,0.004,0.005c0.015,0.013,1.146,1.097,1.146,1.097c0.068,0.086,0.109,0.193,0.112,0.293v0.565    c-0.402,0.1-0.691,0.469-0.691,0.892c0,0.506,0.407,0.918,0.908,0.918c0.502,0,0.909-0.412,0.909-0.918    c0-0.423-0.288-0.792-0.691-0.892v-1.869c0.003-0.101,0.043-0.208,0.107-0.29c0,0,1.14-1.09,1.152-1.103    c0.176-0.184,0.289-0.445,0.289-0.667l-0.001-0.783h0.299c0.026,0,0.047-0.021,0.047-0.047v-1.043    C-123.889,25.845-123.909,25.824-123.936,25.824z"/>
	</g>
	<g>
		<path d="M-167.666,92v1h-12v-1H-167.666 M-167.666,91h-12c-0.553,0-1,0.447-1,1v1c0,0.553,0.447,1,1,1h12c0.553,0,1-0.447,1-1v-1    C-166.666,91.447-167.113,91-167.666,91L-167.666,91z"/>
		<path d="M-168.666,88.5v1h-10v-1H-168.666 M-168.666,87.5h-10c-0.553,0-1,0.447-1,1v1c0,0.553,0.447,1,1,1h10c0.553,0,1-0.447,1-1    v-1C-167.666,87.947-168.113,87.5-168.666,87.5L-168.666,87.5z"/>
		<path d="M-167.666,87h-12c-0.275,0-0.5-0.224-0.5-0.5V51c0-0.276,0.225-0.5,0.5-0.5h12c0.277,0,0.5,0.224,0.5,0.5v35.5    C-167.166,86.776-167.389,87-167.666,87z M-179.166,86h11V51.5h-11V86z"/>
		<path d="M-167.646,50c-0.006-0.001-0.012,0-0.02,0h-12c-0.168,0-0.324-0.084-0.418-0.225c-0.092-0.141-0.107-0.317-0.041-0.473    l1.5-3.5c0.078-0.184,0.26-0.303,0.459-0.303h9c0.201,0,0.381,0.119,0.459,0.303l1.451,3.384c0.068,0.086,0.109,0.195,0.109,0.313    C-167.146,49.776-167.369,50-167.646,50z M-178.908,49h10.484l-1.072-2.5h-8.34L-178.908,49z"/>
		<path d="M-169.666,45h-8c-0.551,0-1-0.449-1-1v-0.5c0-0.551,0.449-1,1-1h8c0.551,0,1,0.449,1,1V44    C-168.666,44.551-169.115,45-169.666,45z M-169.666,44v0.5l0.002-0.5C-169.666,44-169.666,44-169.666,44z M-177.666,43.5V44h8    v-0.5H-177.666z"/>
		<path d="M-169.166,42h-9c-0.275,0-0.5-0.224-0.5-0.5v-4c0-0.276,0.225-0.5,0.5-0.5h9c0.277,0,0.5,0.224,0.5,0.5v4    C-168.666,41.776-168.889,42-169.166,42z M-177.666,41h8v-3h-8V41z"/>
		<path d="M-169.166,36.5h-9c-0.275,0-0.5-0.224-0.5-0.5V22c0-0.276,0.225-0.5,0.5-0.5h9c0.277,0,0.5,0.224,0.5,0.5v14    C-168.666,36.276-168.889,36.5-169.166,36.5z M-177.666,35.5h8v-13h-8V35.5z"/>
		<path d="M-169.166,21h-9c-0.146,0-0.285-0.063-0.379-0.175c-0.096-0.11-0.137-0.257-0.115-0.401    C-178.176,17.274-176.383,7-173.666,7c2.719,0,4.51,10.274,4.994,13.424c0.023,0.145-0.02,0.291-0.115,0.401    C-168.881,20.937-169.02,21-169.166,21z M-177.58,20h7.828c-0.957-5.901-2.715-12-3.914-12S-176.623,14.099-177.58,20z"/>
		<path d="M-177.166,85.5c-0.275,0-0.5-0.224-0.5-0.5V65.5c0-0.276,0.225-0.5,0.5-0.5c0.277,0,0.5,0.224,0.5,0.5V85    C-176.666,85.276-176.889,85.5-177.166,85.5z"/>
		<path d="M-177.166,63c-0.275,0-0.5-0.224-0.5-0.5V56c0-0.276,0.225-0.5,0.5-0.5c0.277,0,0.5,0.224,0.5,0.5v6.5    C-176.666,62.776-176.889,63-177.166,63z"/>
		<path d="M-176.166,35c-0.275,0-0.5-0.224-0.5-0.5V30c0-0.276,0.225-0.5,0.5-0.5c0.277,0,0.5,0.224,0.5,0.5v4.5    C-175.666,34.776-175.889,35-176.166,35z"/>
		<path d="M-176.166,27.5c-0.275,0-0.5-0.224-0.5-0.5v-2c0-0.276,0.225-0.5,0.5-0.5c0.277,0,0.5,0.224,0.5,0.5v2    C-175.666,27.276-175.889,27.5-176.166,27.5z"/>
	</g>
	<g>
		<path d="M-143.833,92v1h-12v-1H-143.833 M-143.833,91h-12c-0.552,0-1,0.447-1,1v1c0,0.553,0.448,1,1,1h12c0.553,0,1-0.447,1-1v-1    C-142.833,91.447-143.28,91-143.833,91L-143.833,91z"/>
		<path d="M-144.833,88.5v1h-10v-1H-144.833 M-144.833,87.5h-10c-0.552,0-1,0.447-1,1v1c0,0.553,0.448,1,1,1h10c0.553,0,1-0.447,1-1    v-1C-143.833,87.947-144.28,87.5-144.833,87.5L-144.833,87.5z"/>
		<path d="M-143.833,87h-12c-0.275,0-0.5-0.224-0.5-0.5V51c0-0.276,0.225-0.5,0.5-0.5h12c0.277,0,0.5,0.224,0.5,0.5v35.5    C-143.333,86.776-143.556,87-143.833,87z M-155.333,86h11V51.5h-11V86z"/>
		<path d="M-143.812,50c-0.007-0.001-0.013,0-0.021,0h-12c-0.168,0-0.324-0.084-0.417-0.225s-0.108-0.317-0.042-0.473l1.5-3.5    c0.078-0.184,0.26-0.303,0.459-0.303h9c0.201,0,0.381,0.119,0.46,0.303l1.45,3.384c0.068,0.086,0.11,0.195,0.11,0.313    C-143.312,49.776-143.536,50-143.812,50z M-155.074,49h10.483l-1.071-2.5h-8.341L-155.074,49z"/>
		<path d="M-145.833,45h-8c-0.551,0-1-0.449-1-1v-0.5c0-0.551,0.449-1,1-1h8c0.552,0,1,0.449,1,1V44    C-144.833,44.551-145.281,45-145.833,45z M-145.833,44v0.5l0.002-0.5C-145.832,44-145.833,44-145.833,44z M-153.833,43.5V44h8    v-0.5H-153.833z"/>
		<path d="M-145.333,42h-9c-0.275,0-0.5-0.224-0.5-0.5v-4c0-0.276,0.225-0.5,0.5-0.5h9c0.277,0,0.5,0.224,0.5,0.5v4    C-144.833,41.776-145.056,42-145.333,42z M-153.833,41h8v-3h-8V41z"/>
		<path d="M-145.333,36.5h-9c-0.275,0-0.5-0.224-0.5-0.5V22c0-0.276,0.225-0.5,0.5-0.5h9c0.277,0,0.5,0.224,0.5,0.5v14    C-144.833,36.276-145.056,36.5-145.333,36.5z M-153.833,35.5h8v-13h-8V35.5z"/>
		<path d="M-145.333,21h-9c-0.146,0-0.284-0.063-0.379-0.175c-0.096-0.11-0.137-0.257-0.115-0.401    C-154.343,17.274-152.55,7-149.833,7c2.719,0,4.51,10.274,4.994,13.424c0.023,0.145-0.02,0.291-0.114,0.401    C-145.048,20.937-145.187,21-145.333,21z M-153.747,20h7.829c-0.958-5.901-2.716-12-3.915-12S-152.789,14.099-153.747,20z"/>
		<path d="M-153.333,85.5c-0.275,0-0.5-0.224-0.5-0.5V65.5c0-0.276,0.225-0.5,0.5-0.5c0.277,0,0.5,0.224,0.5,0.5V85    C-152.833,85.276-153.056,85.5-153.333,85.5z"/>
		<path d="M-153.333,63c-0.275,0-0.5-0.224-0.5-0.5V56c0-0.276,0.225-0.5,0.5-0.5c0.277,0,0.5,0.224,0.5,0.5v6.5    C-152.833,62.776-153.056,63-153.333,63z"/>
		<path d="M-152.333,35c-0.275,0-0.5-0.224-0.5-0.5V30c0-0.276,0.225-0.5,0.5-0.5c0.277,0,0.5,0.224,0.5,0.5v4.5    C-151.833,34.776-152.056,35-152.333,35z"/>
		<path d="M-152.333,27.5c-0.275,0-0.5-0.224-0.5-0.5v-2c0-0.276,0.225-0.5,0.5-0.5c0.277,0,0.5,0.224,0.5,0.5v2    C-151.833,27.276-152.056,27.5-152.333,27.5z"/>
	</g>
	<g>
		<path d="M-191.5,92v1h-12v-1H-191.5 M-191.5,91h-12c-0.552,0-1,0.447-1,1v1c0,0.553,0.448,1,1,1h12c0.553,0,1-0.447,1-1v-1    C-190.5,91.447-190.947,91-191.5,91L-191.5,91z"/>
		<path d="M-192.5,88.5v1h-10v-1H-192.5 M-192.5,87.5h-10c-0.552,0-1,0.447-1,1v1c0,0.553,0.448,1,1,1h10c0.553,0,1-0.447,1-1v-1    C-191.5,87.947-191.947,87.5-192.5,87.5L-192.5,87.5z"/>
		<path d="M-191.5,87h-12c-0.275,0-0.5-0.224-0.5-0.5V51c0-0.276,0.225-0.5,0.5-0.5h12c0.277,0,0.5,0.224,0.5,0.5v35.5    C-191,86.776-191.223,87-191.5,87z M-203,86h11V51.5h-11V86z"/>
		<path d="M-191.479,50c-0.007-0.001-0.013,0-0.021,0h-12c-0.168,0-0.324-0.084-0.417-0.225s-0.108-0.317-0.042-0.473l1.5-3.5    c0.078-0.184,0.26-0.303,0.459-0.303h9c0.201,0,0.381,0.119,0.46,0.303l1.45,3.384c0.068,0.086,0.11,0.195,0.11,0.313    C-190.979,49.776-191.203,50-191.479,50z M-202.741,49h10.483l-1.071-2.5h-8.341L-202.741,49z"/>
		<path d="M-193.5,45h-8c-0.551,0-1-0.449-1-1v-0.5c0-0.551,0.449-1,1-1h8c0.552,0,1,0.449,1,1V44    C-192.5,44.551-192.948,45-193.5,45z M-193.5,44v0.5l0.002-0.5H-193.5z M-201.5,43.5V44h8v-0.5H-201.5z"/>
		<path d="M-193,42h-9c-0.275,0-0.5-0.224-0.5-0.5v-4c0-0.276,0.225-0.5,0.5-0.5h9c0.277,0,0.5,0.224,0.5,0.5v4    C-192.5,41.776-192.723,42-193,42z M-201.5,41h8v-3h-8V41z"/>
		<path d="M-193,36.5h-9c-0.275,0-0.5-0.224-0.5-0.5V22c0-0.276,0.225-0.5,0.5-0.5h9c0.277,0,0.5,0.224,0.5,0.5v14    C-192.5,36.276-192.723,36.5-193,36.5z M-201.5,35.5h8v-13h-8V35.5z"/>
		<path d="M-193,21h-9c-0.146,0-0.284-0.063-0.379-0.175c-0.096-0.11-0.137-0.257-0.115-0.401C-202.01,17.274-200.217,7-197.5,7    c2.719,0,4.51,10.274,4.994,13.424c0.023,0.145-0.02,0.291-0.114,0.401C-192.715,20.937-192.854,21-193,21z M-201.414,20h7.829    c-0.958-5.901-2.716-12-3.915-12S-200.456,14.099-201.414,20z"/>
		<path d="M-201,85.5c-0.275,0-0.5-0.224-0.5-0.5V65.5c0-0.276,0.225-0.5,0.5-0.5c0.277,0,0.5,0.224,0.5,0.5V85    C-200.5,85.276-200.723,85.5-201,85.5z"/>
		<path d="M-201,63c-0.275,0-0.5-0.224-0.5-0.5V56c0-0.276,0.225-0.5,0.5-0.5c0.277,0,0.5,0.224,0.5,0.5v6.5    C-200.5,62.776-200.723,63-201,63z"/>
		<path d="M-200,35c-0.275,0-0.5-0.224-0.5-0.5V30c0-0.276,0.225-0.5,0.5-0.5c0.277,0,0.5,0.224,0.5,0.5v4.5    C-199.5,34.776-199.723,35-200,35z"/>
		<path d="M-200,27.5c-0.275,0-0.5-0.224-0.5-0.5v-2c0-0.276,0.225-0.5,0.5-0.5c0.277,0,0.5,0.224,0.5,0.5v2    C-199.5,27.276-199.723,27.5-200,27.5z"/>
	</g>
	<g>
		<path d="M-54.5,86v1h-12v-1H-54.5 M-54.5,85h-12c-0.552,0-1,0.447-1,1v1c0,0.553,0.448,1,1,1h12c0.553,0,1-0.447,1-1v-1    C-53.5,85.447-53.947,85-54.5,85L-54.5,85z"/>
		<path d="M-55.5,83.5v1h-10v-1H-55.5 M-55.5,82.5h-10c-0.552,0-1,0.447-1,1v1c0,0.553,0.448,1,1,1h10c0.553,0,1-0.447,1-1v-1    C-54.5,82.947-54.947,82.5-55.5,82.5L-55.5,82.5z"/>
		<path d="M-54.5,83h-12c-0.275,0-0.5-0.224-0.5-0.5V47c0-0.276,0.225-0.5,0.5-0.5h12c0.277,0,0.5,0.224,0.5,0.5v35.5    C-54,82.776-54.223,83-54.5,83z M-66,82h11V47.5h-11V82z"/>
		<path d="M-54.479,47c-0.007-0.001-0.013,0-0.021,0h-12c-0.168,0-0.324-0.084-0.417-0.225s-0.108-0.317-0.042-0.473l1.5-3.5    c0.078-0.184,0.26-0.303,0.459-0.303h9c0.201,0,0.381,0.119,0.46,0.303l1.45,3.384c0.068,0.086,0.11,0.195,0.11,0.313    C-53.979,46.776-54.203,47-54.479,47z M-65.741,46h10.483l-1.071-2.5h-8.341L-65.741,46z"/>
		<path d="M-56.5,43h-8c-0.551,0-1-0.449-1-1v-0.5c0-0.551,0.449-1,1-1h8c0.552,0,1,0.449,1,1V42C-55.5,42.551-55.948,43-56.5,43z     M-56.5,42v0.5l0.002-0.5H-56.5z M-64.5,41.5V42h8v-0.5H-64.5z"/>
		<path d="M-56,41h-9c-0.275,0-0.5-0.224-0.5-0.5v-4c0-0.276,0.225-0.5,0.5-0.5h9c0.277,0,0.5,0.224,0.5,0.5v4    C-55.5,40.776-55.723,41-56,41z M-64.5,40h8v-3h-8V40z"/>
		<path d="M-56,36.5h-9c-0.275,0-0.5-0.224-0.5-0.5V22c0-0.276,0.225-0.5,0.5-0.5h9c0.277,0,0.5,0.224,0.5,0.5v14    C-55.5,36.276-55.723,36.5-56,36.5z M-64.5,35.5h8v-13h-8V35.5z"/>
		<path d="M-56,22h-9c-0.146,0-0.284-0.063-0.379-0.175c-0.096-0.11-0.137-0.257-0.115-0.401C-65.01,18.274-63.217,8-60.5,8    c2.719,0,4.51,10.274,4.994,13.424c0.023,0.145-0.02,0.291-0.114,0.401C-55.715,21.937-55.854,22-56,22z M-64.414,21h7.829    c-0.958-5.901-2.716-12-3.915-12S-63.456,15.099-64.414,21z"/>
		<path d="M-64,81.5c-0.275,0-0.5-0.224-0.5-0.5V61.5c0-0.276,0.225-0.5,0.5-0.5c0.277,0,0.5,0.224,0.5,0.5V81    C-63.5,81.276-63.723,81.5-64,81.5z"/>
		<path d="M-64,59c-0.275,0-0.5-0.224-0.5-0.5V52c0-0.276,0.225-0.5,0.5-0.5c0.277,0,0.5,0.224,0.5,0.5v6.5    C-63.5,58.776-63.723,59-64,59z"/>
		<path d="M-63,35c-0.275,0-0.5-0.224-0.5-0.5V30c0-0.276,0.225-0.5,0.5-0.5c0.277,0,0.5,0.224,0.5,0.5v4.5    C-62.5,34.776-62.723,35-63,35z"/>
		<path d="M-63,27.5c-0.275,0-0.5-0.224-0.5-0.5v-2c0-0.276,0.225-0.5,0.5-0.5c0.277,0,0.5,0.224,0.5,0.5v2    C-62.5,27.276-62.723,27.5-63,27.5z"/>
	</g>
	<g>
		<path d="M-34.5,86v1h-12v-1H-34.5 M-34.5,85h-12c-0.552,0-1,0.447-1,1v1c0,0.553,0.448,1,1,1h12c0.553,0,1-0.447,1-1v-1    C-33.5,85.447-33.947,85-34.5,85L-34.5,85z"/>
		<path d="M-35.5,83.5v1h-10v-1H-35.5 M-35.5,82.5h-10c-0.552,0-1,0.447-1,1v1c0,0.553,0.448,1,1,1h10c0.553,0,1-0.447,1-1v-1    C-34.5,82.947-34.947,82.5-35.5,82.5L-35.5,82.5z"/>
		<path d="M-34.5,83h-12c-0.275,0-0.5-0.224-0.5-0.5V47c0-0.276,0.225-0.5,0.5-0.5h12c0.277,0,0.5,0.224,0.5,0.5v35.5    C-34,82.776-34.223,83-34.5,83z M-46,82h11V47.5h-11V82z"/>
		<path d="M-34.479,47c-0.007-0.001-0.013,0-0.021,0h-12c-0.168,0-0.324-0.084-0.417-0.225s-0.108-0.317-0.042-0.473l1.5-3.5    c0.078-0.184,0.26-0.303,0.459-0.303h9c0.201,0,0.381,0.119,0.46,0.303l1.45,3.384c0.068,0.086,0.11,0.195,0.11,0.313    C-33.979,46.776-34.203,47-34.479,47z M-45.741,46h10.483l-1.071-2.5h-8.341L-45.741,46z"/>
		<path d="M-36.5,43h-8c-0.551,0-1-0.449-1-1v-0.5c0-0.551,0.449-1,1-1h8c0.552,0,1,0.449,1,1V42C-35.5,42.551-35.948,43-36.5,43z     M-36.5,42v0.5l0.002-0.5H-36.5z M-44.5,41.5V42h8v-0.5H-44.5z"/>
		<path d="M-36,41h-9c-0.275,0-0.5-0.224-0.5-0.5v-4c0-0.276,0.225-0.5,0.5-0.5h9c0.277,0,0.5,0.224,0.5,0.5v4    C-35.5,40.776-35.723,41-36,41z M-44.5,40h8v-3h-8V40z"/>
		<path d="M-44,81.5c-0.275,0-0.5-0.224-0.5-0.5V61.5c0-0.276,0.225-0.5,0.5-0.5c0.277,0,0.5,0.224,0.5,0.5V81    C-43.5,81.276-43.723,81.5-44,81.5z"/>
		<path d="M-44,59c-0.275,0-0.5-0.224-0.5-0.5V52c0-0.276,0.225-0.5,0.5-0.5c0.277,0,0.5,0.224,0.5,0.5v6.5    C-43.5,58.776-43.723,59-44,59z"/>
		<path d="M-36.001,36.5H-45c-0.277,0-0.5-0.225-0.5-0.5V22c0-0.277,0.223-0.5,0.5-0.5h8.999c0.276,0,0.5,0.223,0.5,0.5v14    C-35.501,36.275-35.725,36.5-36.001,36.5z M-44.5,35.5h7.999v-13H-44.5V35.5z"/>
		
			<rect x="-44.5" y="14" fill="none" stroke="#000000" stroke-linecap="round" stroke-linejoin="round" stroke-miterlimit="10" width="7.999" height="7.5"/>
		<g>
			<path d="M-41.771,17.875h-1.5c-0.068,0-0.125,0.057-0.125,0.125v1.5c0,0.068,0.057,0.125,0.125,0.125h1.5     c0.07,0,0.125-0.057,0.125-0.125V18C-41.646,17.932-41.701,17.875-41.771,17.875z"/>
			<path d="M-37.771,17.875h-1.5c-0.069,0-0.125,0.057-0.125,0.125v1.5c0,0.068,0.056,0.125,0.125,0.125h1.5     c0.069,0,0.125-0.057,0.125-0.125V18C-37.646,17.932-37.702,17.875-37.771,17.875z"/>
		</g>
		<path d="M-38.437,25.824h-1.031c-0.026,0-0.048,0.021-0.048,0.047v1.043c0,0.026,0.021,0.047,0.048,0.047h0.299    c-0.001,0.094-0.001,0.332-0.001,0.793c-0.003,0.101-0.043,0.208-0.107,0.29l-1.006,0.962v-3.871h0.379    c0.018,0,0.032-0.009,0.041-0.022c0.008-0.015,0.008-0.032,0-0.047l-0.596-1.044c-0.018-0.029-0.065-0.029-0.082,0l-0.596,1.044    c-0.009,0.015-0.009,0.032,0,0.047c0.009,0.014,0.023,0.022,0.041,0.022h0.378v5.176l-1.001-0.958    c-0.069-0.087-0.109-0.194-0.112-0.294v-0.84c0.208-0.088,0.346-0.293,0.346-0.521c0-0.314-0.253-0.568-0.563-0.568    s-0.562,0.254-0.562,0.568c0,0.229,0.138,0.434,0.346,0.521v0.83c0,0.221,0.112,0.48,0.286,0.664    c0.001,0.002,0.003,0.003,0.004,0.004c0.015,0.014,1.146,1.098,1.146,1.098c0.068,0.086,0.109,0.193,0.112,0.293v0.564    c-0.402,0.101-0.691,0.469-0.691,0.893c0,0.506,0.407,0.918,0.908,0.918c0.502,0,0.909-0.412,0.909-0.918    c0-0.424-0.288-0.792-0.691-0.893v-1.869c0.003-0.1,0.043-0.207,0.107-0.289c0,0,1.14-1.09,1.152-1.103    c0.176-0.184,0.289-0.444,0.289-0.667l-0.001-0.783h0.299c0.026,0,0.047-0.021,0.047-0.047v-1.043    C-38.39,25.846-38.41,25.824-38.437,25.824z"/>
	</g>
	<g>
		<path d="M-71.5,86v1h-12v-1H-71.5 M-71.5,85h-12c-0.552,0-1,0.447-1,1v1c0,0.553,0.448,1,1,1h12c0.553,0,1-0.447,1-1v-1    C-70.5,85.447-70.947,85-71.5,85L-71.5,85z"/>
		<path d="M-72.5,83.5v1h-10v-1H-72.5 M-72.5,82.5h-10c-0.552,0-1,0.447-1,1v1c0,0.553,0.448,1,1,1h10c0.553,0,1-0.447,1-1v-1    C-71.5,82.947-71.947,82.5-72.5,82.5L-72.5,82.5z"/>
		<path d="M-71.5,83h-12c-0.275,0-0.5-0.224-0.5-0.5V47c0-0.276,0.225-0.5,0.5-0.5h12c0.277,0,0.5,0.224,0.5,0.5v35.5    C-71,82.776-71.223,83-71.5,83z M-83,82h11V47.5h-11V82z"/>
		<path d="M-71.479,47c-0.007-0.001-0.013,0-0.021,0h-12c-0.168,0-0.324-0.084-0.417-0.225s-0.108-0.317-0.042-0.473l1.5-3.5    c0.078-0.184,0.26-0.303,0.459-0.303h9c0.201,0,0.381,0.119,0.46,0.303l1.45,3.384c0.068,0.086,0.11,0.195,0.11,0.313    C-70.979,46.776-71.203,47-71.479,47z M-82.741,46h10.483l-1.071-2.5h-8.341L-82.741,46z"/>
		<path d="M-73.5,43h-8c-0.551,0-1-0.449-1-1v-0.5c0-0.551,0.449-1,1-1h8c0.552,0,1,0.449,1,1V42C-72.5,42.551-72.948,43-73.5,43z     M-73.5,42v0.5l0.002-0.5H-73.5z M-81.5,41.5V42h8v-0.5H-81.5z"/>
		<path d="M-73,41h-9c-0.275,0-0.5-0.224-0.5-0.5v-4c0-0.276,0.225-0.5,0.5-0.5h9c0.277,0,0.5,0.224,0.5,0.5v4    C-72.5,40.776-72.723,41-73,41z M-81.5,40h8v-3h-8V40z"/>
		<path d="M-73,36.5h-9c-0.275,0-0.5-0.224-0.5-0.5V22c0-0.276,0.225-0.5,0.5-0.5h9c0.277,0,0.5,0.224,0.5,0.5v14    C-72.5,36.276-72.723,36.5-73,36.5z M-81.5,35.5h8v-13h-8V35.5z"/>
		<path d="M-73,22h-9c-0.146,0-0.284-0.063-0.379-0.175c-0.096-0.11-0.137-0.257-0.115-0.401C-82.01,18.274-80.217,8-77.5,8    c2.719,0,4.51,10.274,4.994,13.424c0.023,0.145-0.02,0.291-0.114,0.401C-72.715,21.937-72.854,22-73,22z M-81.414,21h7.829    c-0.958-5.901-2.716-12-3.915-12S-80.456,15.099-81.414,21z"/>
		<path d="M-81,81.5c-0.275,0-0.5-0.224-0.5-0.5V61.5c0-0.276,0.225-0.5,0.5-0.5c0.277,0,0.5,0.224,0.5,0.5V81    C-80.5,81.276-80.723,81.5-81,81.5z"/>
		<path d="M-81,59c-0.275,0-0.5-0.224-0.5-0.5V52c0-0.276,0.225-0.5,0.5-0.5c0.277,0,0.5,0.224,0.5,0.5v6.5    C-80.5,58.776-80.723,59-81,59z"/>
		<path d="M-80,35c-0.275,0-0.5-0.224-0.5-0.5V30c0-0.276,0.225-0.5,0.5-0.5c0.277,0,0.5,0.224,0.5,0.5v4.5    C-79.5,34.776-79.723,35-80,35z"/>
		<path d="M-80,27.5c-0.275,0-0.5-0.224-0.5-0.5v-2c0-0.276,0.225-0.5,0.5-0.5c0.277,0,0.5,0.224,0.5,0.5v2    C-79.5,27.276-79.723,27.5-80,27.5z"/>
	</g>
	<g>
		<g>
			<path d="M56.826,93.225v1.139h-13.65v-1.139H56.826 M56.826,92.088h-13.65c-0.627,0-1.137,0.509-1.137,1.137v1.139     c0,0.628,0.51,1.137,1.137,1.137h13.65c0.629,0,1.137-0.509,1.137-1.137v-1.139C57.963,92.597,57.455,92.088,56.826,92.088     L56.826,92.088z"/>
			<path d="M55.689,90.381v1.139H44.314v-1.139H55.689 M55.689,89.244H44.314c-0.629,0-1.139,0.509-1.139,1.137v1.139     c0,0.628,0.51,1.137,1.139,1.137h11.375c0.627,0,1.137-0.509,1.137-1.137v-1.139C56.826,89.753,56.316,89.244,55.689,89.244     L55.689,89.244z"/>
			<path d="M56.826,89.812h-13.65c-0.312,0-0.568-0.255-0.568-0.568V48.862c0-0.313,0.256-0.568,0.568-0.568h13.65     c0.314,0,0.568,0.255,0.568,0.568v40.382C57.395,89.558,57.141,89.812,56.826,89.812z M43.744,88.676h12.514V49.432H43.744     V88.676z"/>
			<path d="M56.85,48.862c-0.008-0.001-0.016,0-0.023,0h-13.65c-0.191,0-0.369-0.095-0.475-0.255s-0.123-0.361-0.047-0.538     l1.705-3.981c0.09-0.209,0.295-0.344,0.523-0.344h10.236c0.229,0,0.434,0.135,0.523,0.344l1.65,3.849     c0.076,0.098,0.125,0.223,0.125,0.356C57.418,48.607,57.162,48.862,56.85,48.862z M44.039,47.725h11.924l-1.217-2.844h-9.488     L44.039,47.725z"/>
			<path d="M54.551,44.312h-9.1c-0.627,0-1.137-0.511-1.137-1.138v-0.568c0-0.626,0.51-1.138,1.137-1.138h9.1     c0.627,0,1.139,0.511,1.139,1.138v0.568C55.689,43.802,55.178,44.312,54.551,44.312z M54.551,43.175v0.569l0.002-0.569H54.551z      M45.451,42.606v0.568h9.1v-0.568H45.451z"/>
			<path d="M55.119,42.037H44.883c-0.314,0-0.568-0.254-0.568-0.568v-4.55c0-0.314,0.254-0.569,0.568-0.569h10.236     c0.316,0,0.57,0.255,0.57,0.569v4.55C55.689,41.783,55.436,42.037,55.119,42.037z M45.451,40.9h9.1v-3.413h-9.1V40.9z"/>
			<path d="M55.119,36.919H44.883c-0.314,0-0.568-0.254-0.568-0.569V20.425c0-0.314,0.254-0.568,0.568-0.568h10.236     c0.316,0,0.57,0.254,0.57,0.568V36.35C55.689,36.665,55.436,36.919,55.119,36.919z M45.451,35.781h9.1V20.994h-9.1V35.781z"/>
			<path d="M55.119,20.425H44.883c-0.166,0-0.324-0.072-0.432-0.199c-0.109-0.125-0.156-0.292-0.131-0.457     c0.551-3.583,2.59-15.27,5.682-15.27s5.129,11.687,5.68,15.27c0.025,0.165-0.021,0.331-0.131,0.457     C55.443,20.353,55.285,20.425,55.119,20.425z M45.549,19.287h8.906c-1.092-6.712-3.09-13.649-4.453-13.649     C48.637,5.638,46.639,12.575,45.549,19.287z"/>
			<path d="M46.02,88.105c-0.312,0-0.568-0.254-0.568-0.568V65.355c0-0.313,0.256-0.568,0.568-0.568     c0.316,0,0.568,0.255,0.568,0.568v22.182C46.588,87.852,46.336,88.105,46.02,88.105z"/>
			<path d="M46.02,62.512c-0.312,0-0.568-0.254-0.568-0.568v-7.393c0-0.315,0.256-0.57,0.568-0.57c0.316,0,0.568,0.255,0.568,0.57     v7.393C46.588,62.258,46.336,62.512,46.02,62.512z"/>
			<path d="M47.158,35.213c-0.314,0-0.57-0.255-0.57-0.569v-5.118c0-0.315,0.256-0.569,0.57-0.569s0.568,0.254,0.568,0.569v5.118     C47.727,34.958,47.473,35.213,47.158,35.213z"/>
			<path d="M47.158,26.682c-0.314,0-0.57-0.255-0.57-0.569v-2.274c0-0.315,0.256-0.569,0.57-0.569s0.568,0.254,0.568,0.569v2.274     C47.727,26.427,47.473,26.682,47.158,26.682z"/>
		</g>
		<g>
			<path d="M77.869,93.225v1.139h-13.65v-1.139H77.869 M77.869,92.088h-13.65c-0.627,0-1.137,0.509-1.137,1.137v1.139     c0,0.628,0.51,1.137,1.137,1.137h13.65c0.629,0,1.137-0.509,1.137-1.137v-1.139C79.006,92.597,78.498,92.088,77.869,92.088     L77.869,92.088z"/>
			<path d="M76.732,90.381v1.139H65.357v-1.139H76.732 M76.732,89.244H65.357c-0.629,0-1.139,0.509-1.139,1.137v1.139     c0,0.628,0.51,1.137,1.139,1.137h11.375c0.628,0,1.137-0.509,1.137-1.137v-1.139C77.869,89.753,77.36,89.244,76.732,89.244     L76.732,89.244z"/>
			<path d="M77.869,89.812h-13.65c-0.312,0-0.568-0.255-0.568-0.568V48.862c0-0.313,0.256-0.568,0.568-0.568h13.65     c0.315,0,0.568,0.255,0.568,0.568v40.382C78.438,89.558,78.185,89.812,77.869,89.812z M64.787,88.676h12.514V49.432H64.787     V88.676z"/>
			<path d="M77.893,48.862c-0.008-0.001-0.015,0-0.023,0h-13.65c-0.19,0-0.368-0.095-0.474-0.255s-0.124-0.361-0.048-0.538     l1.706-3.981c0.089-0.209,0.295-0.344,0.522-0.344h10.236c0.229,0,0.434,0.135,0.523,0.344l1.65,3.849     c0.077,0.098,0.125,0.223,0.125,0.356C78.461,48.607,78.206,48.862,77.893,48.862z M65.082,47.725h11.925l-1.218-2.844h-9.488     L65.082,47.725z"/>
			<path d="M75.594,44.312h-9.1c-0.626,0-1.137-0.511-1.137-1.138v-0.568c0-0.626,0.511-1.138,1.137-1.138h9.1     c0.628,0,1.139,0.511,1.139,1.138v0.568C76.732,43.802,76.222,44.312,75.594,44.312z M75.594,43.175v0.569l0.002-0.569H75.594z      M66.494,42.606v0.568h9.1v-0.568H66.494z"/>
			<path d="M76.162,42.037H65.926c-0.313,0-0.568-0.254-0.568-0.568v-4.55c0-0.314,0.255-0.569,0.568-0.569h10.236     c0.316,0,0.57,0.255,0.57,0.569v4.55C76.732,41.783,76.479,42.037,76.162,42.037z M66.494,40.9h9.1v-3.413h-9.1V40.9z"/>
			<path d="M67.062,88.105c-0.312,0-0.568-0.254-0.568-0.568V65.355c0-0.313,0.256-0.568,0.568-0.568     c0.316,0,0.568,0.255,0.568,0.568v22.182C67.631,87.852,67.379,88.105,67.062,88.105z"/>
			<path d="M67.062,62.512c-0.312,0-0.568-0.254-0.568-0.568v-7.393c0-0.315,0.256-0.57,0.568-0.57c0.316,0,0.568,0.255,0.568,0.57     v7.393C67.631,62.258,67.379,62.512,67.062,62.512z"/>
			<path d="M76.161,36.919H65.926c-0.316,0-0.568-0.255-0.568-0.569V20.425c0-0.315,0.252-0.568,0.568-0.568h10.235     c0.315,0,0.569,0.253,0.569,0.568V36.35C76.73,36.664,76.477,36.919,76.161,36.919z M66.494,35.781h9.099V20.994h-9.099V35.781z"/>
			
				<rect x="66.494" y="11.325" fill="none" stroke="#000000" stroke-linecap="round" stroke-linejoin="round" stroke-miterlimit="10" width="9.099" height="8.531"/>
			<g>
				<path d="M69.598,15.732h-1.706c-0.077,0-0.143,0.065-0.143,0.143v1.706c0,0.078,0.065,0.143,0.143,0.143h1.706      c0.08,0,0.143-0.065,0.143-0.143v-1.706C69.74,15.797,69.678,15.732,69.598,15.732z"/>
				<path d="M74.147,15.732h-1.706c-0.079,0-0.142,0.065-0.142,0.143v1.706c0,0.078,0.062,0.143,0.142,0.143h1.706      c0.079,0,0.143-0.065,0.143-0.143v-1.706C74.29,15.797,74.227,15.732,74.147,15.732z"/>
			</g>
			<path d="M73.392,24.775h-1.174c-0.029,0-0.055,0.025-0.055,0.054v1.187c0,0.03,0.025,0.053,0.055,0.053h0.341     c-0.001,0.106-0.001,0.378-0.001,0.902c-0.004,0.114-0.05,0.236-0.122,0.33l-1.145,1.094v-4.403h0.432     c0.019,0,0.036-0.01,0.046-0.025c0.009-0.017,0.009-0.037,0-0.053l-0.678-1.188c-0.021-0.033-0.074-0.033-0.094,0l-0.678,1.188     c-0.01,0.017-0.01,0.037,0,0.053c0.011,0.015,0.027,0.025,0.048,0.025h0.429v5.887l-1.138-1.089     c-0.079-0.099-0.124-0.221-0.129-0.334v-0.955c0.238-0.1,0.395-0.333,0.395-0.593c0-0.357-0.288-0.646-0.642-0.646     s-0.64,0.289-0.64,0.646c0,0.26,0.156,0.493,0.394,0.593v0.944c0,0.251,0.127,0.546,0.325,0.755     c0.001,0.002,0.003,0.003,0.005,0.004c0.017,0.015,1.303,1.248,1.303,1.248c0.078,0.098,0.124,0.22,0.127,0.333v0.642     c-0.457,0.115-0.785,0.533-0.785,1.016c0,0.575,0.462,1.044,1.032,1.044c0.571,0,1.035-0.469,1.035-1.044     c0-0.482-0.329-0.901-0.787-1.016V29.3c0.003-0.113,0.049-0.235,0.122-0.329c0,0,1.296-1.239,1.311-1.254     c0.2-0.209,0.328-0.506,0.328-0.759l-0.001-0.891h0.341c0.03,0,0.054-0.023,0.054-0.053v-1.187     C73.445,24.8,73.422,24.775,73.392,24.775z"/>
		</g>
		<g>
			<path d="M35.781,93.225v1.139h-13.65v-1.139H35.781 M35.781,92.088h-13.65c-0.627,0-1.137,0.509-1.137,1.137v1.139     c0,0.628,0.51,1.137,1.137,1.137h13.65c0.629,0,1.139-0.509,1.139-1.137v-1.139C36.92,92.597,36.41,92.088,35.781,92.088     L35.781,92.088z"/>
			<path d="M34.645,90.381v1.139H23.27v-1.139H34.645 M34.645,89.244H23.27c-0.628,0-1.139,0.509-1.139,1.137v1.139     c0,0.628,0.511,1.137,1.139,1.137h11.375c0.628,0,1.137-0.509,1.137-1.137v-1.139C35.781,89.753,35.272,89.244,34.645,89.244     L34.645,89.244z"/>
			<path d="M35.781,89.812h-13.65c-0.312,0-0.568-0.255-0.568-0.568V48.862c0-0.313,0.256-0.568,0.568-0.568h13.65     c0.316,0,0.568,0.255,0.568,0.568v40.382C36.35,89.558,36.098,89.812,35.781,89.812z M22.701,88.676h12.512V49.432H22.701V88.676     z"/>
			<path d="M35.805,48.862c-0.007-0.001-0.014,0-0.023,0h-13.65c-0.19,0-0.368-0.095-0.474-0.255s-0.123-0.361-0.048-0.538     l1.706-3.981c0.089-0.209,0.296-0.344,0.522-0.344h10.238c0.228,0,0.433,0.135,0.522,0.344l1.649,3.849     c0.078,0.098,0.126,0.223,0.126,0.356C36.374,48.607,36.12,48.862,35.805,48.862z M22.994,47.725H34.92l-1.219-2.844h-9.487     L22.994,47.725z"/>
			<path d="M33.506,44.312h-9.1c-0.626,0-1.137-0.511-1.137-1.138v-0.568c0-0.626,0.511-1.138,1.137-1.138h9.1     c0.629,0,1.139,0.511,1.139,1.138v0.568C34.645,43.802,34.135,44.312,33.506,44.312z M33.506,43.175v0.569l0.004-0.569H33.506z      M24.406,42.606v0.568h9.1v-0.568H24.406z"/>
			<path d="M34.076,42.037H23.838c-0.313,0-0.568-0.254-0.568-0.568v-4.55c0-0.314,0.255-0.569,0.568-0.569h10.238     c0.314,0,0.568,0.255,0.568,0.569v4.55C34.645,41.783,34.391,42.037,34.076,42.037z M24.406,40.9h9.1v-3.413h-9.1V40.9z"/>
			<path d="M34.076,36.919H23.838c-0.313,0-0.568-0.254-0.568-0.569V20.425c0-0.314,0.255-0.568,0.568-0.568h10.238     c0.314,0,0.568,0.254,0.568,0.568V36.35C34.645,36.665,34.391,36.919,34.076,36.919z M24.406,35.781h9.1V20.994h-9.1V35.781z"/>
			<path d="M34.076,20.425H23.838c-0.166,0-0.323-0.072-0.432-0.199c-0.108-0.125-0.155-0.292-0.131-0.457     c0.552-3.583,2.592-15.27,5.682-15.27c3.092,0,5.13,11.687,5.681,15.27c0.026,0.165-0.022,0.331-0.13,0.457     C34.4,20.353,34.242,20.425,34.076,20.425z M24.504,19.287h8.906c-1.09-6.712-3.089-13.649-4.453-13.649     S25.594,12.575,24.504,19.287z"/>
			<path d="M24.975,88.105c-0.312,0-0.568-0.254-0.568-0.568V65.355c0-0.313,0.256-0.568,0.568-0.568c0.316,0,0.57,0.255,0.57,0.568     v22.182C25.545,87.852,25.291,88.105,24.975,88.105z"/>
			<path d="M24.975,62.512c-0.312,0-0.568-0.254-0.568-0.568v-7.393c0-0.315,0.256-0.57,0.568-0.57c0.316,0,0.57,0.255,0.57,0.57     v7.393C25.545,62.258,25.291,62.512,24.975,62.512z"/>
			<path d="M26.113,35.213c-0.313,0-0.568-0.255-0.568-0.569v-5.118c0-0.315,0.255-0.569,0.568-0.569     c0.314,0,0.568,0.254,0.568,0.569v5.118C26.682,34.958,26.428,35.213,26.113,35.213z"/>
			<path d="M26.113,26.682c-0.313,0-0.568-0.255-0.568-0.569v-2.274c0-0.315,0.255-0.569,0.568-0.569     c0.314,0,0.568,0.254,0.568,0.569v2.274C26.682,26.427,26.428,26.682,26.113,26.682z"/>
		</g>
	</g>
</g>
</svg>