<?xml version="1.0" encoding="utf-8"?>
<!-- Generator: Adobe Illustrator 15.0.2, SVG Export Plug-In . SVG Version: 6.00 Build 0)  -->
<!DOCTYPE svg PUBLIC "-//W3C//DTD SVG 1.1//EN" "http://www.w3.org/Graphics/SVG/1.1/DTD/svg11.dtd">
<svg version="1.1" id="Layer_1" xmlns="http://www.w3.org/2000/svg" xmlns:xlink="http://www.w3.org/1999/xlink" x="0px" y="0px"
	 width="50.372px" height="50.371px" viewBox="26.11 9.258 50.372 50.371" enable-background="new 26.11 9.258 50.372 50.371"
	 xml:space="preserve">
<g id="Captions">
</g>
<g id="Your_Icon">
	<path d="M49.519,48.82c0.051,0.051,0.103,0.098,0.152,0.14c0.028,0.023,0.057,0.044,0.086,0.067
		c0.015,0.011,0.027,0.021,0.042,0.032c0.417,0.311,0.935,0.496,1.498,0.497c0.561-0.001,1.077-0.186,1.496-0.497
		c0.018-0.013,0.038-0.027,0.055-0.042c0.023-0.019,0.047-0.036,0.07-0.056c0.053-0.043,0.105-0.09,0.159-0.144l11.188-11.189
		c0.983-0.983,0.982-2.577,0-3.561c-0.982-0.985-2.576-0.985-3.561,0l-6.891,6.888V21.851c0-1.391-1.127-2.519-2.518-2.519
		c-1.39,0-2.519,1.127-2.519,2.52v19.104l-6.888-6.888c-0.984-0.984-2.579-0.984-3.563,0c-0.984,0.983-0.983,2.578,0,3.561
		l11.187,11.188C49.516,48.817,49.516,48.819,49.519,48.82z"/>
	<path d="M51.297,9.258c-13.91,0-25.186,11.277-25.187,25.186c0.001,13.909,11.277,25.185,25.187,25.185
		c13.908,0,25.185-11.275,25.186-25.185C76.481,20.536,65.206,9.258,51.297,9.258z M51.295,54.593
		c-11.127,0-20.147-9.021-20.148-20.148c0.001-11.126,9.023-20.149,20.148-20.149c11.129,0,20.149,9.022,20.148,20.148
		C71.444,45.571,62.423,54.593,51.295,54.593z"/>
</g>
</svg>
