<?xml version="1.0" encoding="utf-8"?>
<!-- Generator: Adobe Illustrator 15.0.2, SVG Export Plug-In . SVG Version: 6.00 Build 0)  -->
<!DOCTYPE svg PUBLIC "-//W3C//DTD SVG 1.1//EN" "http://www.w3.org/Graphics/SVG/1.1/DTD/svg11.dtd">
<svg version="1.1" id="Layer_1" xmlns="http://www.w3.org/2000/svg" xmlns:xlink="http://www.w3.org/1999/xlink" x="0px" y="0px"
	 width="50.37px" height="50.37px" viewBox="26.111 9.259 50.37 50.37" enable-background="new 26.111 9.259 50.37 50.37"
	 xml:space="preserve">
<g id="Captions">
</g>
<g id="Your_Icon">
	<path d="M36.92,32.667c-0.05,0.051-0.097,0.102-0.14,0.152c-0.023,0.027-0.043,0.057-0.066,0.085
		c-0.01,0.015-0.02,0.027-0.032,0.042c-0.311,0.418-0.497,0.935-0.497,1.497c0,0.562,0.186,1.077,0.497,1.496
		c0.013,0.02,0.027,0.039,0.042,0.057c0.019,0.022,0.035,0.046,0.055,0.069c0.044,0.053,0.091,0.106,0.145,0.16l11.188,11.188
		c0.983,0.983,2.578,0.983,3.563,0c0.983-0.984,0.983-2.578,0-3.562l-6.889-6.889l19.104-0.001c1.393,0,2.519-1.127,2.519-2.518
		c0-1.39-1.126-2.518-2.519-2.518H44.785l6.887-6.889c0.984-0.983,0.984-2.578,0-3.562c-0.982-0.984-2.577-0.984-3.562,0
		L36.924,32.662C36.923,32.664,36.921,32.665,36.92,32.667z"/>
	<path d="M76.481,34.444c0-13.909-11.276-25.185-25.185-25.185c-13.91,0-25.186,11.276-25.186,25.185
		c0,13.909,11.276,25.185,25.186,25.185C65.205,59.629,76.481,48.354,76.481,34.444z M31.147,34.444
		c0-11.126,9.022-20.148,20.149-20.148c11.126,0,20.146,9.021,20.146,20.148c0,11.127-9.021,20.148-20.146,20.148
		C40.169,54.593,31.147,45.571,31.147,34.444z"/>
</g>
</svg>
