<?xml version="1.0" encoding="utf-8"?>
<!-- Generator: Adobe Illustrator 15.0.2, SVG Export Plug-In . SVG Version: 6.00 Build 0)  -->
<!DOCTYPE svg PUBLIC "-//W3C//DTD SVG 1.1//EN" "http://www.w3.org/Graphics/SVG/1.1/DTD/svg11.dtd">
<svg version="1.1" id="Layer_1" xmlns="http://www.w3.org/2000/svg" xmlns:xlink="http://www.w3.org/1999/xlink" x="0px" y="0px"
	 width="50.37px" height="50.37px" viewBox="26.111 9.259 50.37 50.37" enable-background="new 26.111 9.259 50.37 50.37"
	 xml:space="preserve">
<g id="Captions">
</g>
<g id="Your_Icon">
	<path d="M65.672,36.222c0.051-0.051,0.098-0.103,0.141-0.153c0.022-0.027,0.044-0.056,0.066-0.085
		c0.011-0.015,0.021-0.027,0.031-0.042c0.312-0.417,0.496-0.935,0.497-1.497c-0.001-0.562-0.186-1.078-0.496-1.496
		c-0.013-0.019-0.027-0.039-0.042-0.056c-0.019-0.022-0.035-0.046-0.056-0.069c-0.044-0.053-0.091-0.106-0.144-0.16L54.481,21.476
		c-0.983-0.983-2.577-0.983-3.562,0c-0.984,0.983-0.984,2.577,0,3.562l6.889,6.889l-19.105,0c-1.392,0-2.519,1.127-2.519,2.518
		c0,1.39,1.127,2.517,2.519,2.518l19.105,0L50.92,43.85c-0.983,0.985-0.983,2.58,0,3.564c0.984,0.983,2.578,0.983,3.562,0
		l11.188-11.187C65.669,36.225,65.671,36.225,65.672,36.222z"/>
	<path d="M26.111,34.445c0,13.908,11.276,25.184,25.186,25.184c13.908,0,25.184-11.275,25.185-25.185
		c0-13.909-11.276-25.185-25.185-25.185C37.387,9.26,26.111,20.536,26.111,34.445z M71.444,34.445
		c0,11.126-9.021,20.147-20.147,20.148c-11.127,0-20.149-9.022-20.149-20.148c0-11.127,9.021-20.148,20.149-20.148
		C62.423,14.296,71.444,23.318,71.444,34.445z"/>
</g>
</svg>
