<?xml version="1.0" encoding="utf-8"?>
<!-- Generator: Adobe Illustrator 15.0.2, SVG Export Plug-In . SVG Version: 6.00 Build 0)  -->
<!DOCTYPE svg PUBLIC "-//W3C//DTD SVG 1.1//EN" "http://www.w3.org/Graphics/SVG/1.1/DTD/svg11.dtd">
<svg version="1.1" id="Layer_1" xmlns="http://www.w3.org/2000/svg" xmlns:xlink="http://www.w3.org/1999/xlink" x="0px" y="0px"
	 width="50.37px" height="50.37px" viewBox="26.111 9.259 50.37 50.37" enable-background="new 26.111 9.259 50.37 50.37"
	 xml:space="preserve">
<g id="Your_Icon">
	<path d="M53.073,20.069c-0.052-0.051-0.103-0.098-0.152-0.14c-0.027-0.023-0.058-0.044-0.085-0.066
		c-0.016-0.011-0.027-0.021-0.043-0.032c-0.418-0.312-0.936-0.497-1.496-0.497c-0.562,0-1.078,0.186-1.496,0.496
		c-0.02,0.013-0.039,0.027-0.057,0.042c-0.022,0.019-0.046,0.036-0.069,0.056c-0.053,0.044-0.106,0.09-0.16,0.144L38.328,31.259
		c-0.983,0.983-0.983,2.577,0,3.562c0.983,0.983,2.578,0.983,3.561,0l6.889-6.888l0,19.104c0,1.392,1.127,2.519,2.519,2.519
		c1.39,0,2.518-1.127,2.518-2.519V27.933l6.888,6.888c0.984,0.983,2.579,0.983,3.563,0c0.984-0.984,0.983-2.578,0-3.562
		L53.078,20.073C53.077,20.072,53.076,20.07,53.073,20.069z"/>
	<path d="M51.297,59.629c13.908,0,25.185-11.275,25.185-25.185c0-13.909-11.276-25.185-25.185-25.185
		c-13.91,0-25.186,11.276-25.186,25.185C26.111,48.354,37.387,59.629,51.297,59.629z M51.297,14.296
		c11.126,0,20.147,9.021,20.147,20.148c0,11.127-9.021,20.148-20.147,20.148c-11.127,0-20.149-9.021-20.149-20.148
		C31.148,23.318,40.169,14.296,51.297,14.296z"/>
</g>
</svg>
